<?xml version="1.0" encoding="UTF-8"?>
<svg id="Layer_2" data-name="Layer 2" xmlns="http://www.w3.org/2000/svg" viewBox="0 0 1805.19 464.41">
  <defs>
    <style>
      .cls-1 {
        fill: #fff;
      }

      .cls-2 {
        fill: #5b5b5f;
      }

      .cls-3 {
        fill: #e5d925;
      }

      .cls-4 {
        fill: #787878;
      }

      .cls-5 {
        fill: #013a94;
      }
    </style>
  </defs>
  <g id="Capa_1" data-name="Capa 1">
    <g>
      <g id="_3ZyaMT" data-name="3ZyaMT">
        <g>
          <g>
            <path class="cls-3" d="M436.55,286.94c-9.76-9.98-20.92-15.64-34.37-16.05-13.31-.41-24.76,4.45-34.99,14.16,0-3.23,0-5.76,0-8.3,0-21.84,0-43.67,0-65.51,0-3.9-.43-4.47-4.17-5.63-3.93-1.22-6.4-4.45-6.55-8.81-.11-3.08-.11-6.16,0-9.24.16-4.72,3-8.07,7.6-9.1,3.1-.69,6.21-1.3,9.31-1.96,6.26-1.33,10.07-5.69,10.49-12.09.12-1.77.01-3.55.08-5.32.22-5.88,3.56-10.39,9.22-11.95,7.62-2.09,15.33-2.07,22.95,0,5.56,1.52,9.06,6.21,9.28,11.97.07,1.77-.02,3.55.04,5.32.22,6,4.08,10.65,9.92,11.94,3.19.7,6.4,1.3,9.59,2,4.79,1.05,7.56,4.12,7.81,8.92.17,3.35.18,6.72-.02,10.07-.26,4.45-3.21,7.62-7.58,8.52-1.92.39-3.84.86-5.78,1.05-1.86.19-2.61,1.21-2.75,2.88-.08.93-.09,1.86-.09,2.79,0,23.79-.01,47.57-.01,71.36,0,.98,0,1.97,0,2.95ZM403.74,225.7c14.04.23,25.86-11.28,26.02-25.34.16-14.06-11.13-25.78-25.03-26-14.48-.23-26.17,10.91-26.39,25.16-.23,14.32,11.05,25.95,25.41,26.18Z"/>
            <path class="cls-5" d="M436.99,288.01l-.75-.77c-10.09-10.32-21.23-15.52-34.07-15.92-12.96-.38-24.3,4.19-34.68,14.04l-.74.7v-74.82c.01-3.71-.28-4.1-3.85-5.21-4.14-1.29-6.7-4.73-6.85-9.21-.11-3.18-.11-6.3,0-9.27.17-4.88,3.14-8.44,7.94-9.51,1.95-.43,3.9-.84,5.85-1.24,1.16-.24,2.31-.48,3.47-.72,6.04-1.28,9.74-5.55,10.15-11.69.06-.99.06-2.01.05-2.99,0-.77,0-1.54.02-2.31.23-6.16,3.79-10.78,9.55-12.36,7.67-2.11,15.47-2.1,23.18,0,5.69,1.55,9.37,6.29,9.6,12.38.03.89.03,1.79.02,2.68,0,.88-.01,1.76.02,2.64.21,5.77,3.97,10.29,9.58,11.53,1.6.35,3.21.68,4.83,1.01,1.59.32,3.18.64,4.76.99,5,1.1,7.9,4.41,8.15,9.32.18,3.47.17,6.87-.02,10.12-.27,4.56-3.31,7.97-7.93,8.92l-1.19.25c-1.51.32-3.07.65-4.63.81-1.54.15-2.22.88-2.36,2.49-.08.92-.09,1.83-.09,2.76v75.38ZM400.62,270.43c.52,0,1.05,0,1.58.02,12.75.39,23.86,5.44,33.91,15.43v-73.25c.02-.91.02-1.88.1-2.83.17-2.01,1.2-3.09,3.14-3.28,1.52-.15,3.05-.48,4.54-.8l1.2-.25c4.28-.88,6.99-3.91,7.23-8.11.19-3.21.19-6.59.02-10.02-.23-4.55-2.81-7.49-7.46-8.51-1.58-.35-3.17-.67-4.75-.99-1.61-.33-3.23-.65-4.84-1.01-6.01-1.32-10.03-6.17-10.26-12.35-.03-.89-.03-1.79-.02-2.68,0-.88.01-1.76-.02-2.64-.21-5.69-3.65-10.12-8.95-11.57-7.57-2.07-15.21-2.07-22.72,0-5.36,1.47-8.69,5.79-8.9,11.54-.03.76-.02,1.52-.02,2.28,0,1,.01,2.03-.06,3.05-.43,6.56-4.39,11.11-10.84,12.49-1.16.25-2.32.49-3.47.73-1.95.4-3.89.8-5.83,1.24-4.46.99-7.11,4.16-7.26,8.69-.1,2.95-.1,6.04,0,9.2.14,4.09,2.47,7.23,6.24,8.4,3.93,1.22,4.47,1.96,4.47,6.05v72.79c9.91-9.15,20.73-13.61,32.98-13.61ZM404.16,226.15c-.14,0-.29,0-.43,0-14.48-.24-26.07-12.18-25.84-26.63.11-7.01,2.95-13.52,7.99-18.32,5.04-4.8,11.76-7.35,18.85-7.27,14.2.23,25.63,12.09,25.46,26.44-.08,6.93-2.9,13.44-7.95,18.35-4.93,4.8-11.34,7.43-18.09,7.43ZM404.28,174.79c-6.73,0-13.03,2.49-17.8,7.03-4.87,4.64-7.61,10.92-7.71,17.7-.22,13.96,10.98,25.51,24.97,25.74h0c6.67.13,13.02-2.44,17.89-7.17,4.88-4.75,7.61-11.05,7.68-17.74.16-13.87-10.88-25.34-24.6-25.56-.14,0-.29,0-.43,0Z"/>
          </g>
          <g>
            <path class="cls-3" d="M401.34,329.18c-8.76,0-17.52-.09-26.28.05-2.48.04-3.19-.9-3.39-3.18-1.01-11.4,5.02-21.59,16.11-26.99,14.76-7.18,33.28-1.37,40.64,12.74,2.4,4.61,3.1,9.49,2.63,14.64-.19,2.09-1,2.82-3.15,2.79-8.85-.11-17.71-.05-26.56-.05Z"/>
            <path class="cls-5" d="M374.92,329.67c-2.8,0-3.49-1.37-3.69-3.58-1.03-11.68,5.08-21.93,16.36-27.42,14.9-7.26,33.78-1.33,41.22,12.93,2.31,4.43,3.19,9.3,2.68,14.88-.21,2.29-1.19,3.19-3.48,3.19h-.11c-6.38-.08-12.88-.08-19.15-.06-2.47,0-4.93.01-7.4,0h0c-2.3,0-4.6,0-6.9-.02-6.35-.02-12.92-.04-19.38.07-.05,0-.1,0-.15,0ZM401.23,296.44c-4.5,0-9.04.97-13.26,3.02-10.94,5.32-16.87,15.25-15.87,26.55.19,2.14.82,2.79,2.79,2.79.05,0,.1,0,.16,0,6.46-.1,13.04-.09,19.4-.07,2.53,0,5.07.02,7.61.02,2.23,0,4.46,0,6.69,0,6.28-.01,12.78-.02,19.17.06,1.94-.02,2.54-.54,2.71-2.39.49-5.41-.35-10.12-2.58-14.4-5.12-9.82-15.84-15.57-26.8-15.57Z"/>
          </g>
          <g>
            <path class="cls-3" d="M362.79,219.04v87.7c-.17.04-.34.08-.52.13-1.87-4.43-3.74-8.85-5.6-13.28-8.07-19.17-10.53-38.34-18.59-57.52-1.7-4.04-.96-7.01,2.52-9.84,4.21-3.43,3.72-4.64,8.89-5.5,4.3-.71,8.66-1.11,13.3-1.69Z"/>
            <path class="cls-5" d="M362.02,307.38l-5.75-13.62c-4.05-9.62-6.73-19.39-9.32-28.83-2.58-9.41-5.25-19.13-9.27-28.69-1.77-4.22-.96-7.41,2.64-10.35,1.2-.97,2.02-1.78,2.69-2.43,1.73-1.68,2.59-2.53,6.41-3.16,2.97-.49,5.92-.83,9.05-1.19,1.4-.16,2.82-.32,4.27-.5l.49-.06v88.53l-1.21.3ZM362.35,219.53c-1.28.16-2.54.3-3.79.44-3.12.36-6.06.69-9.01,1.18-3.55.59-4.3,1.32-5.94,2.92-.68.66-1.52,1.48-2.74,2.48-3.29,2.68-4.01,5.47-2.39,9.33,4.04,9.61,6.72,19.36,9.31,28.79,2.59,9.42,5.26,19.16,9.28,28.72l5.28,12.51v-86.39Z"/>
          </g>
          <g>
            <path class="cls-3" d="M440.56,306.63v-86.88c.31-.15.56-.37.8-.36,7.66.41,9.66,1.22,16.8,4.29,3.15,1.35,5.99,3.26,7.13,6.68.43,1.3.57,3.04.07,4.26-9.66,23.25-13.82,46.45-23.58,69.66-.24.56-.56,1.09-1.22,2.36Z"/>
            <path class="cls-5" d="M440.13,308.41v-88.95l.25-.12c.09-.04.18-.09.26-.14.21-.13.45-.25.75-.26,7.59.41,9.61,1.17,16.96,4.32,2.53,1.09,6.05,2.99,7.38,6.95.4,1.2.66,3.12.05,4.56-4.77,11.49-8.26,23.16-11.63,34.45-3.45,11.54-7.01,23.47-11.95,35.21-.15.36-.34.71-.62,1.24-.17.31-.37.68-.61,1.15l-.83,1.59ZM441,220v84.87c.16-.3.28-.53.38-.78,4.92-11.7,8.47-23.61,11.91-35.12,3.38-11.31,6.88-23.01,11.66-34.54.48-1.14.3-2.81-.08-3.95-.93-2.79-3.06-4.77-6.89-6.42-7.23-3.11-9.21-3.85-16.66-4.25-.04,0-.17.08-.25.14-.03.02-.05.03-.08.05Z"/>
          </g>
          <g>
            <path class="cls-3" d="M358.38,308.25c2.2,5.36,4.8,10.03,4.71,15.9-.27,18.93-.08,37.86-.08,56.79,0,.51-.12,1.03-.76,1.7-1.93-3.45-3.93-6.86-5.78-10.35-8.99-16.98-15.65-34.83-19.91-53.58-.51-2.24.02-3.11,2.15-3.79,6.47-2.06,12.87-4.34,19.67-6.66Z"/>
            <path class="cls-5" d="M362.05,384.09l-.58-1.03c-.61-1.09-1.23-2.18-1.85-3.27-1.34-2.35-2.67-4.71-3.94-7.1-9.03-17.05-15.75-35.15-19.99-53.8-.6-2.65.17-4,2.74-4.82,4.65-1.48,9.2-3.05,14.01-4.72l6.42-2.2.31.76c.39.96.8,1.9,1.2,2.82,1.88,4.33,3.65,8.42,3.58,13.42-.19,13.43-.15,27.1-.11,40.31.02,5.49.03,10.97.03,16.46,0,.88-.3,1.57-1.01,2.31l-.82.85ZM357.88,309.34l-4.85,1.67c-4.83,1.67-9.39,3.24-14.05,4.73-1.72.55-1.97.99-1.56,2.77,4.2,18.49,10.87,36.45,19.83,53.37,1.26,2.38,2.59,4.71,3.91,7.05.33.57.65,1.15.98,1.73,0-5.39-.02-10.79-.03-16.18-.04-13.22-.08-26.9.11-40.34.07-4.63-1.63-8.55-3.43-12.7-.3-.69-.6-1.38-.9-2.09Z"/>
          </g>
          <g>
            <path class="cls-3" d="M440.43,381.58c0-1.56,0-3.12,0-4.68,0-18.66-.2-37.33.16-55.99.08-3.89,2.21-7.76,3.52-11.59.12-.36,1.29-.71,1.8-.55,6.9,2.27,13.77,4.63,20.97,7.08-4.81,23.58-13.61,45.36-25.71,65.86-.25-.05-.49-.09-.74-.14Z"/>
            <path class="cls-5" d="M441.39,382.2l-1.4-.25v-5.05c0-4.92-.01-9.85-.03-14.77-.04-13.51-.08-27.48.19-41.22.06-2.88,1.21-5.75,2.32-8.52.42-1.05.86-2.14,1.23-3.21.23-.67,1.71-1.03,2.35-.82,5.48,1.8,10.87,3.64,16.57,5.58l4.77,1.62-.08.38c-4.69,22.98-13.11,44.57-25.76,66l-.15.26ZM440.87,381.21l.08.02c12.44-21.14,20.76-42.43,25.42-65.08l-4.04-1.38c-5.7-1.94-11.08-3.78-16.56-5.58-.31-.1-1.13.15-1.27.31-.35,1.04-.79,2.14-1.22,3.21-1.08,2.7-2.21,5.49-2.26,8.21-.27,13.73-.23,27.7-.19,41.2.02,4.92.03,9.85.03,14.77v4.32Z"/>
          </g>
          <g>
            <path class="cls-3" d="M477.66,316.04c-12.11-4.13-19.7-7.49-31.6-11.55,4.52-10.76,6.14-21.25,10.72-32.15,3.7,2.72,9.92,5.22,13.33,7.74,2.02,1.49,4.06,2.96,6.04,4.51,5.69,4.44,8.62,10.35,8.07,17.5-.36,4.68-5.58,8.73-6.57,13.94Z"/>
            <path class="cls-5" d="M478,316.62l-.48-.16c-6.08-2.07-11.1-3.98-15.94-5.83-4.78-1.82-9.73-3.7-15.65-5.72l-.44-.15.18-.43c2.25-5.34,3.8-10.72,5.31-15.93,1.53-5.28,3.1-10.73,5.41-16.22l.22-.51.45.33c1.86,1.36,4.39,2.69,6.84,3.97,2.46,1.29,4.79,2.51,6.49,3.76l1.26.93c1.58,1.16,3.21,2.36,4.79,3.59,5.93,4.63,8.78,10.81,8.23,17.88-.19,2.52-1.67,4.78-3.24,7.17-1.41,2.15-2.87,4.38-3.33,6.82l-.09.5ZM446.65,304.23c5.74,1.96,10.56,3.8,15.24,5.58,4.72,1.8,9.59,3.65,15.45,5.66.58-2.42,1.99-4.57,3.35-6.65,1.5-2.29,2.92-4.46,3.1-6.75.52-6.86-2.13-12.62-7.9-17.13-1.56-1.22-3.19-2.42-4.77-3.58l-1.26-.93c-1.65-1.22-3.95-2.42-6.38-3.69-2.29-1.2-4.65-2.44-6.5-3.72-2.18,5.27-3.7,10.53-5.17,15.62-1.47,5.09-2.99,10.35-5.16,15.59Z"/>
          </g>
          <g>
            <path class="cls-3" d="M346.16,272.36c4.55,10.81,6.14,21.24,10.73,32.12-11.84,4.04-19.49,7.43-31.34,11.47-2.28-9.31-9.65-17.72-3.35-26.33,1.99-2.72,4.73-4.97,7.4-7.1,4.3-3.41,11.62-6.54,16.56-10.17Z"/>
            <path class="cls-5" d="M325.23,316.52l-.11-.47c-.64-2.61-1.7-5.19-2.72-7.68-2.68-6.51-5.21-12.65-.56-19.01,1.99-2.72,4.68-4.95,7.48-7.18,2.26-1.8,5.26-3.47,8.44-5.24,2.84-1.58,5.78-3.21,8.13-4.94l.45-.33.22.51c2.28,5.42,3.85,10.83,5.36,16.05,1.51,5.23,3.08,10.64,5.36,16.07l.18.43-.44.15c-5.91,2.02-10.86,3.9-15.65,5.73-4.8,1.83-9.76,3.72-15.69,5.74l-.45.16ZM345.96,273.04c-2.32,1.64-5.09,3.18-7.77,4.68-3.15,1.75-6.12,3.41-8.33,5.16-2.76,2.19-5.39,4.38-7.32,7.01-4.36,5.96-1.93,11.89.66,18.16.98,2.38,1.99,4.83,2.65,7.34,5.72-1.96,10.54-3.8,15.21-5.58,4.67-1.78,9.5-3.62,15.24-5.59-2.21-5.33-3.74-10.61-5.22-15.73-1.46-5.04-2.97-10.25-5.11-15.45Z"/>
          </g>
          <g>
            <path class="cls-1" d="M403.74,225.7c-14.35-.24-25.63-11.86-25.41-26.18.22-14.25,11.91-25.39,26.39-25.16,13.91.22,25.19,11.94,25.03,26-.16,14.06-11.98,25.57-26.02,25.34Z"/>
            <path class="cls-5" d="M404.16,226.15c-.14,0-.29,0-.43,0-14.48-.24-26.07-12.18-25.84-26.63.11-7.01,2.95-13.52,7.99-18.32,5.04-4.8,11.76-7.35,18.85-7.27,14.2.23,25.63,12.09,25.46,26.44-.08,6.93-2.9,13.44-7.95,18.35-4.93,4.8-11.34,7.43-18.09,7.43ZM404.28,174.79c-6.73,0-13.03,2.49-17.8,7.03-4.87,4.64-7.61,10.92-7.71,17.7-.22,13.96,10.98,25.51,24.97,25.74h0c6.67.13,13.02-2.44,17.89-7.17,4.88-4.75,7.61-11.04,7.68-17.74.16-13.87-10.88-25.34-24.6-25.56-.14,0-.29,0-.43,0Z"/>
          </g>
          <g>
            <path class="cls-3" d="M338.21,377.16c-1.2.32-1.69-.22-1.89-1.29-.17-.93.09-1.62.97-1.77.03-2.02.11-1.81,2.07-2.27,4.14-.96,8.29-1.93,12.43-2.89,1.42-.33,2.13-.19,2.72,1.23.52,1.07,1.1,2.31,1.38,3.49.23.94-.12,1.49-1.06,1.71-4.54,1.05-10.23,2.25-14.76,3.32-1.24.29-1.66-.45-1.85-1.54Z"/>
            <path class="cls-5" d="M339.56,379.64c-.43,0-.81-.11-1.14-.33-.45-.3-.71-.74-.87-1.18-.4,0-.76-.11-1.06-.3-.53-.34-.87-.93-1.03-1.79-.15-.8-.04-1.46.31-1.97.13-.19.34-.42.66-.59.09-1.65.5-2,2.2-2.38l12.96-3.01c1.65-.38,2.91-.23,3.72,1.75.55,1.12,1.13,2.38,1.42,3.62.17.7.1,1.3-.2,1.79-.3.49-.81.82-1.51.98-2.11.49-4.47,1.01-6.84,1.54-2.73.6-5.49,1.21-7.92,1.78-.25.06-.48.09-.7.09ZM338.91,376.07l.16.95c.11.66.27.81.31.84.08.05.25.05.47,0,2.43-.57,5.2-1.18,7.94-1.79,2.37-.52,4.72-1.04,6.83-1.53.26-.06.39-.14.42-.19s.05-.2-.02-.46c-.26-1.07-.79-2.23-1.32-3.31-.37-.91-.54-1.04-1.73-.76l-12.98,3.02c-.34.07-.73.16-.82.22,0,.08-.02.73-.02,1.08v.73s-.73.12-.73.12c-.07.01-.19.04-.23.1-.05.08-.09.29-.03.65.1.52.23.62.25.63.01,0,.15.08.56-.03l.93-.25Z"/>
          </g>
          <g>
            <path class="cls-3" d="M465.72,376.38c1.2.32,1.69-.22,1.89-1.29.17-.93-.17-1.41-1.04-1.57q-.03-2.02-1.99-2.48c-4.14-.96-8.29-1.93-12.43-2.89-1.42-.33-2.22-.12-2.56,1.29-.28,1.19-.99,2.37-1.27,3.56-.23.94.12,1.49,1.06,1.71,4.54,1.05,9.96,2.13,14.49,3.2,1.24.29,1.66-.45,1.85-1.54Z"/>
            <path class="cls-5" d="M464.37,378.42c-.19,0-.39-.03-.6-.08-2.37-.56-5.02-1.13-7.58-1.68-2.38-.51-4.74-1.02-6.91-1.52-.59-.14-1-.4-1.24-.78-.24-.38-.29-.87-.15-1.46.15-.63.41-1.24.66-1.84.25-.6.48-1.16.62-1.72.46-1.94,1.82-1.91,3.08-1.61,2.76.64,5.52,1.28,8.29,1.93l4.14.97c2.05.48,2.28.65,2.32,2.55.37.12.65.31.84.58.25.36.32.82.21,1.41-.14.74-.41,1.24-.84,1.5-.31.2-.69.28-1.14.21-.12.47-.34.97-.79,1.27-.25.17-.56.25-.9.25ZM451.15,368.46c-.66,0-.95.32-1.13,1.09-.15.63-.41,1.25-.66,1.85-.25.59-.48,1.15-.61,1.71-.08.35-.07.62.04.79.11.18.34.31.69.39,2.16.5,4.52,1.01,6.89,1.52,2.57.55,5.22,1.12,7.6,1.68.36.09.63.07.81-.06.24-.16.4-.52.51-1.13l.08-.47.46.12c.41.1.71.1.9-.02.21-.13.35-.43.44-.92.06-.35.04-.6-.06-.75-.1-.15-.31-.25-.63-.3l-.36-.06v-.36q-.03-1.68-1.66-2.06l-4.14-.96c-2.76-.64-5.52-1.29-8.29-1.93-.36-.08-.65-.13-.9-.13Z"/>
          </g>
        </g>
      </g>
      <g>
        <g>
          <path class="cls-3" d="M257.58,137.04c.81-.82,1.57-1.38,2.61-.24.32.35,1.09.34,1.64.31,2.84-.15,5.18-1.71,7.39-3.43,2.42-1.88,4.7-4,7.04-6.02.98-.85,3.3-1,4.26-.18.22.19.34.66.33.99-.12,5.25,2.27,8.83,6.65,11.6-1.31.78-2.43,1.46-3.56,2.12-.27.16-.72.13-.85.35-1.44,2.38-3.96,3.26-5.88,4.98-1.64,1.47-3.64,2.59-5.5,3.78-.98.63-2.68-.07-3.88-.16.86,1.5,2.19,1.81,5.1.93.44,1.94-.5,3.35-2.56,3.66-2.36.36-4.45-.35-5.97-2.41-1.75-2.36-2.54-5.11-2.25-8.17.23-2.44,1.4-3.51,3.64-3.47.41,0,.92-.06,1.22-.33,3.08-2.71,6.13-5.46,9.24-8.25-.9-.97-1.63-.9-2.54-.04-2.71,2.54-5.5,4.99-8.93,6.25-1.41.52-2.95.85-4.42.82-.92-.02-1.83-.86-2.75-1.34,0-.59,0-1.17,0-1.76Z"/>
          <path class="cls-5" d="M269.21,156.35c-2.13,0-3.93-.92-5.25-2.71-1.86-2.52-2.65-5.39-2.35-8.54.25-2.66,1.58-3.95,4.06-3.95.06,0,.12,0,.16,0,.37,0,.68-.08.82-.19,2.43-2.14,4.85-4.3,7.28-6.49l1.53-1.37c-.16-.11-.31-.17-.45-.18-.31-.04-.56.16-.95.52-2.67,2.5-5.57,5.05-9.11,6.36-1.58.58-3.15.89-4.61.85-.79-.02-1.49-.47-2.17-.91-.27-.17-.54-.35-.81-.49l-.28-.15v-2.29l.15-.15c.5-.5,1.08-1.04,1.83-1.04.01,0,.02,0,.03,0,.52,0,1.02.28,1.51.82.06.07.33.18,1.22.14,2.8-.15,5.13-1.79,7.1-3.32,1.73-1.34,3.41-2.83,5.04-4.27.66-.58,1.31-1.16,1.97-1.73,1.11-.97,3.71-1.23,4.95-.19.37.31.52.95.52,1.4-.11,4.77,1.92,8.31,6.4,11.15l.72.46-1.75,1.05c-.9.54-1.72,1.03-2.55,1.51-.18.1-.37.15-.53.18-.07.02-.17.04-.21.06-.91,1.55-2.35,2.51-3.74,3.43-.77.51-1.5,1-2.16,1.59-1.33,1.19-2.89,2.16-4.39,3.09-.4.25-.79.49-1.18.74-.04.03-.08.05-.12.07.28-.07.58-.15.91-.25l.54-.16.12.55c.25,1.1.1,2.08-.41,2.84-.53.78-1.42,1.28-2.59,1.46-.42.06-.83.1-1.22.1ZM265.66,142.21c-1.91,0-2.81.9-3.01,3-.27,2.88.45,5.51,2.15,7.81,1.34,1.81,3.16,2.56,5.47,2.2.87-.13,1.51-.48,1.87-1.01.27-.39.38-.89.34-1.46-2.29.62-4.04.56-5.13-1.33l-.49-.86.98.07c.38.03.81.11,1.26.2.84.17,1.79.36,2.3.04.39-.25.79-.5,1.19-.75,1.47-.91,2.98-1.85,4.24-2.98.72-.64,1.51-1.17,2.28-1.68,1.35-.9,2.63-1.75,3.5-3.18.19-.32.54-.4.8-.46.09-.02.2-.05.24-.07.82-.48,1.64-.97,2.53-1.5l.3-.18c-4.33-2.98-6.3-6.69-6.19-11.59,0-.24-.09-.52-.15-.58-.73-.62-2.77-.52-3.57.18-.66.57-1.31,1.15-1.96,1.72-1.64,1.45-3.34,2.95-5.1,4.32-2.09,1.62-4.58,3.37-7.68,3.54-.81.04-1.6.02-2.06-.48-.28-.31-.54-.47-.75-.48-.3-.07-.62.26-.94.58v1.23c.2.12.41.25.61.38.58.38,1.14.73,1.62.74,1.31.07,2.76-.25,4.23-.79,3.36-1.24,6.17-3.71,8.75-6.14.61-.57,1.17-.76,1.7-.81.54.02,1.06.31,1.59.88l.36.39-2.35,2.11c-2.44,2.19-4.85,4.36-7.29,6.5-.47.41-1.17.47-1.57.45h-.1Z"/>
        </g>
        <g>
          <path class="cls-3" d="M287.77,94.92c.87.72,1.85,1.33,2.59,2.19,1.64,1.92,1.99,4.24,1.45,6.64-1.85-.61-3.62-1.19-5.38-1.77-.03.13-.07.27-.1.4.24.07.48.14.72.2,3.18.76,5.56,2.65,7.14,5.81,1.4,2.82,2.88,5.59,4.39,8.52-1.23.71-2.38,1.38-3.65,2.11-1.14-2.54-2.22-4.98-3.32-7.41-.22-.48-.47-.93-.72-1.39-.62-1.14-1.28-1.91-2.63-.95-.54.38-1.37.38-2.07.37-4.54-.03-9.08-.15-13.62-.16-1.53,0-2.63-.67-3.5-1.99-1.42-2.18-1.9-4.6-1.52-7.21.35-2.36,1.68-3.65,3.9-3.88,3.98-.41,7.97-.77,11.96-1.17.48-.05.95-.19,1.43-.3.98,0,1.96,0,2.94,0Z"/>
          <path class="cls-5" d="M294.67,119.76l-1.17-2.63c-.8-1.8-1.59-3.56-2.38-5.32-.19-.43-.42-.83-.64-1.24-.33-.61-.66-1.13-1.02-1.21-.21-.04-.53.06-.91.33-.67.48-1.61.48-2.37.47-1.98-.02-3.96-.05-5.93-.08-2.56-.04-5.12-.08-7.68-.09-1.67,0-2.95-.73-3.94-2.23-1.47-2.25-2.01-4.79-1.6-7.57.37-2.58,1.88-4.07,4.36-4.33,2.28-.23,4.57-.45,6.86-.67,1.7-.16,3.4-.33,5.11-.5.3-.03.6-.1.9-.18.16-.04.32-.08.48-.11h3.24s.15.11.15.11c.27.22.54.43.82.64.63.48,1.29.98,1.83,1.61,1.63,1.92,2.17,4.37,1.56,7.1l-.13.56-.57-.19c1.22,1.01,2.23,2.31,3.03,3.9.96,1.93,1.95,3.83,2.97,5.79l1.65,3.17-4.59,2.65ZM289.34,108.29c.12,0,.24.01.35.04.76.17,1.24.88,1.64,1.62.3.54.53.98.74,1.43.79,1.76,1.58,3.52,2.38,5.32l.7,1.56,2.71-1.57-1.18-2.28c-1.02-1.96-2.02-3.87-2.98-5.8-1.49-2.99-3.71-4.8-6.79-5.53-.18-.04-.36-.09-.53-.14l-.7-.2.37-1.44,5.35,1.76c.36-2.18-.13-4.07-1.44-5.62-.47-.55-1.05-.99-1.67-1.46-.24-.18-.48-.36-.71-.55h-2.75s-.19.06-.34.09c-.35.08-.69.16-1.04.2-1.71.17-3.41.33-5.11.5-2.28.22-4.57.44-6.85.67-2.01.21-3.13,1.33-3.43,3.44-.37,2.52.11,4.82,1.44,6.84.79,1.21,1.74,1.75,3.06,1.76,2.57,0,5.13.04,7.7.09,1.97.03,3.95.06,5.92.08.62.01,1.36,0,1.76-.27.5-.36.96-.54,1.4-.54Z"/>
        </g>
        <g>
          <path class="cls-3" d="M523.63,94.92c2.38.28,4.76.58,7.14.84,2.08.23,4.16.4,6.24.63,2.32.26,3.72,1.78,3.97,4.32.21,2.14-.18,4.17-1.15,6.05-.92,1.78-2.21,2.76-4.21,2.74-4.27-.05-8.54.12-12.8.09-1.29,0-2.58-.37-4.27-.64-2.37,2.49-3.06,6.6-5.07,10-1.17-.67-2.33-1.33-3.62-2.07,1.85-3.47,3.54-6.89,5.45-10.15,1.52-2.6,4.02-3.69,6.71-4.3-.04-.14-.09-.27-.13-.41-1.7.57-3.41,1.14-5.12,1.71-1.26-3.17.51-6.95,4.2-8.81.89,0,1.78,0,2.67,0Z"/>
          <path class="cls-5" d="M513.67,119.66l-4.52-2.58.24-.45c.56-1.06,1.11-2.11,1.66-3.16,1.27-2.43,2.47-4.74,3.8-7.01.5-.86,1.1-1.55,1.75-2.12l-.14.05-.18-.46c-1.36-3.44.55-7.51,4.46-9.47l.24-.06h2.73s2.24.27,2.24.27c1.63.2,3.26.39,4.9.57,1.02.11,2.05.21,3.07.31,1.06.1,2.12.2,3.17.32,2.58.29,4.16,1.99,4.43,4.79.22,2.24-.18,4.37-1.21,6.34-1.05,2.03-2.56,3.02-4.61,3.02h-.07c-2.24-.03-4.53,0-6.75.04-2.02.03-4.04.05-6.05.05-.91,0-1.78-.17-2.79-.37-.4-.08-.83-.16-1.28-.23-1.22,1.39-1.98,3.28-2.78,5.28-.59,1.48-1.2,3.01-2.04,4.43l-.26.45ZM510.55,116.67l2.73,1.56c.67-1.23,1.2-2.55,1.71-3.83.88-2.2,1.7-4.27,3.18-5.82l.19-.2.27.04c.57.09,1.09.19,1.59.29.96.18,1.79.34,2.6.35,1.99.01,4.02-.02,6.03-.05,2.22-.03,4.51-.07,6.78-.04h.06c1.66,0,2.8-.76,3.68-2.45.92-1.79,1.29-3.72,1.09-5.76-.23-2.29-1.44-3.62-3.5-3.85-1.05-.12-2.1-.22-3.15-.32-1.03-.1-2.06-.2-3.08-.31-1.64-.18-3.28-.38-4.91-.57l-2.2-.27h-2.51c-3.16,1.64-4.81,4.83-4,7.62l5.13-1.72.46,1.46-.55.13c-3.19.72-5.16,1.97-6.37,4.06-1.32,2.26-2.51,4.54-3.78,6.97-.47.9-.94,1.8-1.42,2.71Z"/>
        </g>
        <g>
          <path class="cls-3" d="M505.28,118.46c1.06-1.73,1.92-1.98,3.51-1.07,1.73.99,3.5,1.92,5.17,3.03.51.34.76,1.17,1.13,1.78.28.46.54.92.84,1.37.07.1.24.13.36.18,2.62,1.28,3.26,3.09,2.02,5.97-.34.78-.85,1.48-1.34,2.16-.84,1.15-1.78,1.31-3.04.6-2.85-1.58-5.75-3.03-8.66-4.49-4.85-2.43-9.16-1.3-12.71,3.12-2.53,3.15-3.82,7-5.3,10.74-5.23,13.28-10.44,26.57-15.68,39.84-1.63,4.14-3.61,8.04-6.78,11.07-2.92,2.79-6.38,3.33-10.08,3.18v-9.78c.2-.13.27-.21.34-.22,2.44-.21,2.5-.2,3-2.75,1.58-8.14,3.06-16.31,4.68-24.44,1.22-6.14,2.71-12.23,5.45-17.81,3.83-7.78,9.26-13.62,17.14-16.37.84-.29,1.63-.94,2.31-1.59,4.8-4.56,10.3-6.1,16.51-4.76.35.08.7.15,1.12.23ZM484.39,127.19c-3.45,1.41-6.15,3.58-8.62,6.16-5.31,5.57-8.06,12.65-9.77,20.25-1.63,7.22-2.93,14.53-4.37,21.8-.59,3.01-1.15,6.03-1.81,9.5.72-.73,1.24-1.07,1.52-1.58,1.2-2.15,2.53-4.25,3.46-6.54,4.39-10.91,8.65-21.88,12.97-32.82,2.17-5.52,4.36-11.04,6.62-16.77Z"/>
          <path class="cls-5" d="M455.84,196.49c-.39,0-.76,0-1.13-.02l-.51-.02v-10.57l.39-.26c.11-.08.24-.18.43-.19q2.12-.19,2.53-2.32c.67-3.46,1.33-6.92,1.98-10.38.89-4.69,1.77-9.38,2.7-14.06,1.18-5.91,2.66-12.17,5.49-17.94,4.22-8.57,9.92-14.01,17.44-16.64.81-.28,1.6-.98,2.12-1.47,4.87-4.63,10.58-6.28,16.98-4.89l.76.16c1.13-1.67,2.29-1.93,4.01-.94.44.25.89.51,1.34.76,1.28.72,2.61,1.46,3.86,2.29.47.31.73.85.98,1.37.1.2.19.39.3.57l.24.4c.17.29.35.58.53.87.1.04.15.06.2.08,2.9,1.41,3.62,3.52,2.28,6.65-.35.82-.88,1.54-1.38,2.23-1.01,1.38-2.22,1.62-3.74.78-2.69-1.5-5.5-2.91-8.21-4.27l-.42-.21c-4.57-2.29-8.63-1.3-12.06,2.98-2.15,2.68-3.42,5.96-4.65,9.14l-.57,1.47c-2.27,5.75-4.52,11.5-6.78,17.25-2.96,7.53-5.92,15.06-8.89,22.59-1.38,3.48-3.41,7.91-6.9,11.25-2.95,2.82-6.42,3.35-9.34,3.35ZM455.26,195.43c.17,0,.35,0,.52,0,3.82,0,6.45-.94,8.67-3.06,3.33-3.19,5.23-7.29,6.65-10.88,2.97-7.52,5.93-15.05,8.89-22.58,2.26-5.75,4.52-11.5,6.78-17.25l.57-1.46c1.26-3.25,2.55-6.61,4.8-9.42,3.73-4.65,8.34-5.77,13.35-3.26l.42.21c2.73,1.36,5.54,2.78,8.26,4.29,1.05.58,1.69.47,2.36-.45.49-.68.98-1.35,1.29-2.06,1.12-2.6.61-4.13-1.77-5.29-.2-.07-.42-.15-.56-.37-.22-.32-.41-.65-.61-.99l-.24-.39c-.13-.2-.24-.43-.35-.66-.19-.39-.39-.8-.62-.95-1.22-.81-2.53-1.54-3.8-2.25-.45-.25-.9-.5-1.35-.76-1.26-.72-1.84-.69-2.8.89l-.19.32-1.49-.31c-6.12-1.33-11.36.18-16.03,4.63-.64.61-1.5,1.36-2.5,1.7-7.25,2.53-12.76,7.8-16.84,16.11-2.78,5.66-4.24,11.84-5.4,17.68-.93,4.68-1.82,9.36-2.7,14.05-.65,3.46-1.31,6.93-1.98,10.39-.53,2.7-.75,2.93-3.33,3.16v8.98ZM458.99,186.5l.87-4.6c.44-2.31.84-4.45,1.27-6.6.41-2.07.81-4.14,1.2-6.21.98-5.13,2-10.43,3.16-15.6,2.04-9.04,5.18-15.55,9.9-20.5,2.86-3,5.66-5,8.8-6.28l1.14-.47-10.58,26.84c-3.08,7.84-6.27,15.95-9.46,23.9-.72,1.79-1.69,3.46-2.62,5.09-.29.5-.58,1-.86,1.51-.22.4-.54.69-.94,1.06-.2.18-.42.38-.67.63l-1.21,1.23ZM483.43,128.19c-2.54,1.23-4.88,3-7.27,5.52-4.58,4.8-7.64,11.16-9.64,20-1.16,5.16-2.18,10.45-3.16,15.57-.4,2.07-.79,4.14-1.2,6.21-.42,2.14-.83,4.29-1.27,6.59l-.25,1.3c.1-.11.18-.21.24-.32.28-.51.57-1.01.87-1.52.92-1.59,1.87-3.24,2.55-4.96,3.2-7.94,6.38-16.05,9.46-23.89l9.66-24.51Z"/>
        </g>
        <g>
          <path class="cls-3" d="M353.75,185.92v9.99c-4.28.27-8.12-.63-11.18-4.2-2.79-3.25-4.61-7.14-6.19-11.18-5.72-14.58-11.41-29.17-17.18-43.73-1.47-3.72-3.63-6.96-6.95-8.95-2.84-1.69-5.82-1.55-8.73-.07-3.18,1.62-6.37,3.24-9.51,4.95-.88.48-1.52.37-2.16-.3-1.65-1.71-2.38-3.81-2.18-6.31.1-1.18.82-1.61,1.67-1.99,1.07-.48,2.3-.74,2.15-2.57-.03-.4.65-1,1.12-1.28,1.62-1.01,3.29-1.93,4.95-2.87,1.58-.9,2.04-.76,3.38.59.29.29.97.28,1.42.18,4.54-1.01,8.85-.33,12.92,2.07,2.67,1.58,4.8,3.83,6.45,6.62.24.4.49.84.84,1.1,6.98,5.23,11.82,12.45,15.84,20.41,5.68,11.26,9.47,23.27,11.59,35.92.18,1.09.39,1.88,1.76,1.61ZM350.1,185.41c-.08-.7-.1-1.18-.18-1.65-2.68-14.61-7.3-28.38-14.89-40.84-2.45-4.02-5.27-7.7-8.99-11.04.35,1.02.55,1.7.8,2.34,4.88,12.38,9.75,24.77,14.66,37.14,1.35,3.39,2.74,6.76,4.29,10.04.86,1.8,2.11,3.36,4.31,4Z"/>
          <path class="cls-5" d="M352.42,196.48c-4.38,0-7.66-1.42-10.25-4.43-2.98-3.47-4.85-7.67-6.28-11.33l-4.81-12.27c-4.11-10.49-8.22-20.98-12.37-31.45-1.63-4.11-3.83-6.96-6.74-8.69-2.54-1.52-5.31-1.54-8.22-.05l-.39.2c-3,1.53-6.1,3.1-9.11,4.74-1.06.58-1.98.45-2.79-.39-1.76-1.82-2.54-4.08-2.33-6.72.12-1.47,1.09-2.02,1.98-2.42l.4-.17c.93-.39,1.55-.64,1.44-1.88-.07-.86,1.22-1.68,1.36-1.77,1.27-.79,2.58-1.53,3.85-2.25l1.11-.63c1.86-1.06,2.57-.79,4.01.68.08.08.5.14.94.04,4.67-1.04,9.14-.32,13.3,2.13,2.66,1.57,4.89,3.86,6.64,6.81.23.39.45.76.7.95,6.14,4.6,11.22,11.15,15.99,20.6,5.56,11.02,9.48,23.15,11.63,36.07.09.52.18.99.4,1.14.17.12.5.09.74.04l.63-.12v11.12l-.49.03c-.47.03-.93.04-1.37.04ZM307.96,126.1c1.57,0,3.09.44,4.56,1.31,3.11,1.85,5.45,4.86,7.17,9.2,4.14,10.47,8.26,20.96,12.37,31.45l4.81,12.27c1.4,3.57,3.22,7.68,6.1,11.03,2.51,2.93,5.8,4.23,10.26,4.04v-8.92c-.36,0-.66-.1-.91-.27-.56-.39-.71-1.06-.84-1.83-2.14-12.81-6.02-24.84-11.54-35.77-4.7-9.3-9.68-15.72-15.68-20.23-.42-.31-.7-.79-.95-1.21-1.68-2.84-3.79-5-6.29-6.48-3.92-2.32-8.14-2.99-12.54-2.01-.6.13-1.46.13-1.91-.32-1.21-1.23-1.42-1.26-2.75-.5l-1.12.63c-1.26.71-2.56,1.45-3.82,2.22-.48.29-.84.7-.87.83.16,1.95-1.14,2.5-2.09,2.89l-.37.16c-.87.39-1.3.72-1.37,1.55-.19,2.35.48,4.29,2.04,5.91.5.51.88.56,1.53.2,3.02-1.65,6.13-3.23,9.13-4.76l.39-.2c1.6-.81,3.16-1.22,4.68-1.22ZM350.7,186.13l-.75-.22c-2.03-.59-3.55-1.99-4.64-4.28-1.66-3.5-3.11-7.06-4.31-10.07-3.81-9.59-7.6-19.2-11.38-28.81l-3.28-8.33c-.17-.44-.32-.9-.51-1.46l-.94-2.8,1.48,1.33c3.46,3.09,6.34,6.64,9.09,11.15,7.15,11.74,12.04,25.16,14.95,41.02.06.32.09.65.13,1.04l.14,1.42ZM327.2,133.69c.04.11.09.23.13.34l3.28,8.33c3.78,9.61,7.56,19.21,11.38,28.81,1.19,3,2.63,6.53,4.28,10.01.82,1.73,1.86,2.84,3.23,3.45-.03-.29-.05-.54-.1-.78-2.89-15.73-7.74-29.04-14.82-40.66-2.28-3.75-4.66-6.81-7.39-9.5Z"/>
        </g>
        <g>
          <path class="cls-3" d="M290.25,123.24c-2.58,1.69-2.94,2.32-2.19,5.46.43,1.78,1.16,3.58,2.13,5.08,1.14,1.77,1.99,1.77,3.8.83.23-.12.48-.19.82-.33.41,1.99.24,3.76-.82,5.34-.81,1.2-1.98,1.44-3.23,1.07-4.32-1.28-6.77-4.61-7.68-9.18-.44-2.21-.29-4.64-.04-6.92.19-1.69,1.26-3.03,2.96-3.33,1.72-.3,3.11.4,4.26,1.99Z"/>
          <path class="cls-5" d="M291.78,141.37c-.37,0-.77-.06-1.18-.18-4.27-1.27-7.05-4.58-8.04-9.58-.47-2.36-.29-4.9-.05-7.08.22-2.01,1.52-3.46,3.39-3.79,1.89-.32,3.49.41,4.78,2.2l.32.45-.46.3c-2.37,1.56-2.67,1.97-1.97,4.9.42,1.76,1.16,3.5,2.07,4.91.97,1.5,1.51,1.48,3.12.65.17-.09.34-.15.56-.23l.9-.35.12.61c.47,2.27.17,4.14-.9,5.74-.65.96-1.56,1.46-2.64,1.46ZM286.74,121.72c-.22,0-.43.02-.66.06-1.4.24-2.37,1.34-2.53,2.87-.23,2.1-.41,4.54.04,6.76.92,4.66,3.38,7.61,7.31,8.78,1.14.33,2.03.05,2.65-.86.82-1.22,1.1-2.61.85-4.33-.06.02-.12.05-.17.08-1.9.99-3.12,1.1-4.48-1.01-.97-1.51-1.75-3.37-2.2-5.24-.77-3.24-.31-4.17,1.94-5.7-.81-.94-1.71-1.41-2.75-1.41Z"/>
        </g>
        <g>
          <path class="cls-3" d="M518.14,123.27c1.11-1.37,2.27-2.2,3.87-2.06,1.52.13,2.52,1.04,3.14,2.54,2.39,5.81-1.05,14.56-6.52,16.67-3.27,1.26-4.81-.7-5.16-3.91-.07-.66.07-1.35.12-2.05.16-.03.31-.11.41-.06,2.85,1.22,4.14.77,5.49-2.47.68-1.63.94-3.51,1.15-5.31.2-1.77-1.11-2.59-2.5-3.35Z"/>
          <path class="cls-5" d="M516.8,141.33c-.65,0-1.23-.16-1.74-.47-1.17-.71-1.88-2.15-2.11-4.3-.05-.51,0-1.02.06-1.51.02-.21.05-.42.06-.63l.03-.41.41-.07c.25-.07.47-.12.7-.03,1.35.58,2.21.72,2.86.45.7-.28,1.3-1.1,1.94-2.64.66-1.58.91-3.42,1.11-5.17.16-1.41-.82-2.07-2.23-2.83l-.55-.3.39-.49c.92-1.15,2.25-2.43,4.33-2.25,1.66.14,2.86,1.11,3.58,2.86,1.24,3.01,1.05,6.98-.51,10.61-1.41,3.29-3.71,5.75-6.31,6.75-.73.28-1.41.42-2.02.42ZM514.07,135c0,.06-.01.12-.02.18-.05.45-.1.88-.06,1.27.19,1.77.75,2.99,1.61,3.51.71.43,1.67.42,2.84-.04,2.33-.9,4.42-3.16,5.72-6.19,1.45-3.38,1.64-7.04.51-9.8-.58-1.4-1.44-2.11-2.7-2.22-1.12-.1-2.03.32-3.01,1.39,1.13.66,2.42,1.66,2.21,3.56-.2,1.74-.47,3.74-1.19,5.45-.78,1.85-1.53,2.81-2.52,3.21-.88.36-1.9.25-3.39-.34Z"/>
        </g>
        <g>
          <path class="cls-3" d="M550.58,137.69c-.81-.82-1.57-1.38-2.61-.24-.32.35-1.09.34-1.64.31-2.84-.15-5.18-1.71-7.39-3.43-2.42-1.88-4.7-4-7.04-6.02-.98-.85-3.3-1-4.26-.18-.22.19-.34.66-.33.99.12,5.25-2.27,8.83-6.65,11.6,1.31.78,2.43,1.46,3.56,2.12.27.16.72.13.85.35,1.44,2.38,3.96,3.26,5.88,4.98,1.64,1.47,3.64,2.59,5.5,3.78.98.63,2.68-.07,3.88-.16-.86,1.5-2.19,1.81-5.1.93-.44,1.94.5,3.35,2.56,3.66,2.36.36,4.45-.35,5.97-2.41,1.75-2.36,2.54-5.11,2.25-8.17-.23-2.44-1.4-3.51-3.64-3.47-.41,0-.92-.06-1.22-.33-3.08-2.71-6.13-5.46-9.24-8.25.9-.97,1.63-.9,2.54-.04,2.71,2.54,5.5,4.99,8.93,6.25,1.41.52,2.95.85,4.42.82.92-.02,1.83-.86,2.75-1.34,0-.59,0-1.17,0-1.76Z"/>
          <path class="cls-5" d="M538.95,157c-.4,0-.81-.03-1.22-.1-1.16-.18-2.06-.68-2.58-1.46-.52-.76-.66-1.74-.41-2.84l.12-.55.54.16c.33.1.63.18.91.25-.04-.02-.08-.05-.12-.07-.39-.25-.78-.49-1.17-.74-1.5-.94-3.06-1.9-4.4-3.1-.66-.59-1.39-1.08-2.16-1.59-1.39-.92-2.83-1.88-3.82-3.5.02.05-.08.02-.14,0-.17-.04-.36-.08-.53-.18-.8-.47-1.6-.95-2.47-1.47l-1.83-1.1.72-.46c4.48-2.85,6.51-6.39,6.4-11.15-.01-.45.14-1.09.52-1.41,1.23-1.04,3.83-.78,4.95.19.65.56,1.29,1.13,1.94,1.7,1.64,1.45,3.34,2.95,5.08,4.3,1.97,1.53,4.3,3.17,7.1,3.32.87.04,1.15-.05,1.22-.14.49-.54.99-.81,1.51-.82h.03c.75,0,1.34.54,1.83,1.04l.15.15v2.29l-.28.15c-.27.14-.54.31-.81.49-.68.44-1.39.89-2.17.91-1.45.04-3.02-.27-4.61-.85-3.53-1.3-6.44-3.85-9.11-6.36-.38-.35-.68-.52-.93-.52h-.02c-.14,0-.29.06-.45.18l1.49,1.34c2.45,2.2,4.87,4.37,7.31,6.52.14.12.45.19.86.2.04,0,.08,0,.12,0,2.48,0,3.81,1.29,4.06,3.95.29,3.15-.5,6.02-2.36,8.54-1.32,1.79-3.12,2.71-5.25,2.71ZM535.67,153.39c-.04.57.08,1.07.34,1.46.36.53,1.01.88,1.87,1.01,2.31.36,4.13-.39,5.47-2.2,1.7-2.3,2.43-4.93,2.16-7.81-.2-2.1-1.1-3-3.01-3h-.16c-.4,0-1.06-.06-1.51-.46-2.45-2.15-4.88-4.33-7.33-6.53l-2.32-2.08.36-.39c.53-.57,1.05-.86,1.59-.88.68-.04,1.32.45,1.7.81,2.7,2.53,5.41,4.9,8.75,6.14,1.47.54,2.94.8,4.23.79.49-.01,1.04-.37,1.62-.74.2-.13.41-.26.61-.38v-1.23c-.32-.31-.65-.58-.93-.58,0,0,0,0,0,0-.22,0-.47.16-.76.47-.44.49-1.26.52-2.05.48-3.1-.16-5.59-1.91-7.68-3.54-1.76-1.37-3.47-2.88-5.13-4.34-.64-.57-1.29-1.13-1.93-1.69-.81-.7-2.85-.8-3.58-.18-.06.06-.15.34-.14.58.11,4.91-1.86,8.62-6.19,11.6l.38.23c.86.52,1.65.99,2.45,1.46.04.02.16.05.24.07.26.06.61.14.8.47.86,1.42,2.14,2.27,3.5,3.17.77.51,1.57,1.04,2.28,1.68,1.26,1.13,2.78,2.08,4.25,2.99.4.25.79.49,1.19.74.5.32,1.45.13,2.3-.04.44-.09.88-.17,1.26-.2l.98-.07-.49.86c-1.09,1.89-2.85,1.94-5.13,1.33Z"/>
        </g>
      </g>
      <path class="cls-5" d="M369.73,231.19c.61-5.66.79-10.99-.75-16.36,4.22,2.94,6.45,8.93,4.84,12.67-.75,1.74-2.06,2.86-4.09,3.7Z"/>
      <path class="cls-5" d="M368.92,277.59c2.08-2.97,3.83-6.06,3.68-9.84-.02-.51-.14-1.03-.28-1.53-.3-1.1-.83-2.45-1.96-2.32-.85.1-.48,1.58-.48,2.44,0,3.77.09,7.53-.96,11.25Z"/>
      <path class="cls-5" d="M369.43,255.35c.61-5.66.79-10.99-.75-16.36,4.22,2.94,6.45,8.93,4.84,12.67-.75,1.74-2.06,2.86-4.09,3.7Z"/>
      <path class="cls-5" d="M433.75,234.04c-.61-5.66-.79-10.99.75-16.36-4.22,2.94-6.45,8.93-4.84,12.67.75,1.74,2.06,2.86,4.09,3.7Z"/>
      <path class="cls-5" d="M434.55,280.44c-2.08-2.97-3.83-6.06-3.68-9.84.02-.51.14-1.03.28-1.53.3-1.1.83-2.45,1.96-2.32.85.1.48,1.58.48,2.44,0,3.77-.09,7.53.96,11.25Z"/>
      <path class="cls-5" d="M434.04,258.19c-.61-5.66-.79-10.99.75-16.36-4.22,2.94-6.45,8.93-4.84,12.67.75,1.74,2.06,2.86,4.09,3.7Z"/>
      <g>
        <path class="cls-1" d="M382.35,414.65c12.53-1.02,24.45-5.57,38.64-14.75,18.58-12.02,35.75-27.64,52.51-47.73,25.26-30.3,44.45-63.13,58.35-88.34,17.2-31.19,29.26-65.69,36.88-105.48,3.66-19.1,4.53-35.77,2.67-50.97-1.51-12.32-4.9-21.82-10.66-29.89-9.98-13.98-23.95-20.3-42.7-19.32-11.32.59-22.94,3.33-35.52,8.37-17.13,6.86-33.42,17.21-52.8,33.54-17.32,14.59-31.41,31.34-41.75,44.3-3.9,4.89-8.97,10.23-17.04,12.77-1.04.33-2.11.81-3.24,1.31-1.46.65-2.98,1.32-4.74,1.84l-7.83,2.28,4.41-6.44c.87-1.28,1.73-2.57,2.59-3.86,1.88-2.82,3.82-5.73,5.93-8.53,11.32-15.03,23.71-30.97,37.6-45.66,9.65-10.21,20.29-19.32,30.34-27.65,10.92-9.04,21.63-16.46,32.73-22.67,22.01-12.31,41.24-18.81,60.51-20.45,16.87-1.44,31.66,1.09,45.2,7.74,11.25,5.52,20.44,13.87,28.09,25.52,4.46,6.8,8.01,14.57,10.55,23.11,2.72,9.16,4.29,19.21,4.97,31.65.67,12.47.15,25.36-1.55,38.31-2.42,18.45-6.51,36.44-12.13,53.48-8.76,26.54-18.61,49.44-30.11,70.01-6.73,12.04-14.08,23.96-21.03,35.15-12.05,19.39-26.98,38.46-45.64,58.28-14.47,15.37-29.12,28.33-44.81,39.61-17.55,12.63-34.46,21.75-51.69,27.91-2.33.83-4.62,1.59-6.88,2.28M408.94,432.85c16.65-5.95,33.04-14.81,50.11-27.08,15.37-11.05,29.74-23.75,43.93-38.84,18.38-19.54,33.08-38.3,44.93-57.37,6.92-11.13,14.23-22.99,20.9-34.92,11.32-20.25,21.04-42.84,29.69-69.05,5.52-16.72,9.53-34.38,11.91-52.5,1.66-12.63,2.17-25.2,1.51-37.35-.65-12.02-2.16-21.7-4.76-30.46-2.39-8.05-5.72-15.35-9.89-21.71-7.08-10.79-15.52-18.48-25.8-23.53-12.48-6.12-26.16-8.45-41.82-7.12-18.31,1.56-36.7,7.8-57.88,19.65-10.77,6.02-21.17,13.23-31.8,22.03-9.9,8.2-20.37,17.17-29.8,27.15-13.69,14.49-25.96,30.27-37.18,45.16-1.15,1.53-2.26,3.12-3.35,4.71,6.09-2.1,10.06-6.3,13.44-10.54,10.51-13.18,24.85-30.21,42.57-45.15,19.92-16.78,36.73-27.44,54.52-34.56,13.26-5.31,25.56-8.2,37.62-8.83,20.77-1.09,36.93,6.24,48.02,21.78,6.3,8.82,9.99,19.09,11.61,32.32,1.93,15.75,1.04,32.95-2.72,52.58-7.73,40.35-19.99,75.38-37.46,107.08-14.02,25.43-33.39,58.56-58.97,89.24-17.14,20.57-34.77,36.57-53.87,48.94-15.13,9.79-27.97,14.65-41.64,15.76"/>
        <path class="cls-1" d="M607.95,192.03l1.58-8.2c.29-1.51.57-2.93.83-4.34l1.49-8c1.33-7.16,2.66-14.32,4.03-21.48.31-1.63.98-3.19,1.88-4.39,6.63-8.83,14.07-19.45,19.05-31.27.76-1.81,1.38-3.67,2.03-5.64.31-.92.61-1.85.93-2.77l.72-2.04,5.89.14-.05,2.74c-.02,1.25-.02,2.5-.01,3.76,0,2.8.02,5.69-.28,8.58-1.24,11.83-2.69,23.79-4.2,36.02-.55,4.48-3.23,7.94-5.6,11.01-.49.64-.98,1.27-1.45,1.91-5.74,7.84-13.16,14.36-19.68,19.85-.35.3-.69.47-.98.63-.12.06-.26.14-.46.25l-5.72,3.24ZM639.56,122.62c-4.94,9.82-11.17,18.62-16.82,26.15-.39.53-.71,1.3-.87,2.12-1.37,7.14-2.7,14.3-4.02,21.45l-1.23,6.64c4.65-4.15,9.35-8.81,13.15-14.02.5-.68,1.02-1.36,1.54-2.04,2.11-2.73,4.11-5.31,4.48-8.32,1.34-10.85,2.63-21.48,3.77-31.99Z"/>
        <path class="cls-1" d="M576.47,278.88l-3.24-3.49.84-1.64c.56-1.09,1.13-2.19,1.7-3.28,1.22-2.33,2.47-4.73,3.58-7.11l.9-1.93c3.41-7.3,6.94-14.85,10.14-22.34,1.4-3.27,3.53-6.04,6.93-8.98,11.86-10.27,20.54-20.48,26.54-31.23.1-.17.19-.34.28-.52.37-.69.82-1.56,1.56-2.4l9.1-10.33-4.41,14.77c-.45,1.52-.89,3.04-1.38,4.55-.71,2.23-1.42,4.43-2.26,6.59-1.41,3.64-2.64,7.36-3.83,10.95-1.53,4.63-3.12,9.42-5.13,14.18-2.2,5.19-4.92,10.57-7.56,15.78-.97,1.92-1.93,3.82-2.85,5.67-.79,1.6-2.18,2.56-3.3,3.33-.49.34-.94.65-1.25.95-5.33,5.22-11.67,9.54-19.38,13.23-1.13.54-2.26,1.06-3.4,1.59l-3.59,1.68ZM618.38,217.1c-4.78,5.76-10.41,11.42-16.95,17.08-2.72,2.36-4.33,4.42-5.39,6.89-3.23,7.58-6.78,15.17-10.22,22.51l-.9,1.92c-.63,1.35-1.3,2.7-1.98,4.03,6.08-3.13,11.17-6.73,15.5-10.97.67-.66,1.4-1.16,2.05-1.61.52-.36,1.23-.85,1.36-1.11.92-1.87,1.89-3.78,2.87-5.72,2.59-5.12,5.28-10.42,7.4-15.43,1.93-4.55,3.48-9.24,4.97-13.76.42-1.26.84-2.54,1.28-3.83Z"/>
        <path class="cls-1" d="M617.71,110.13l-.54-3.9c-.13-.99-.26-1.97-.38-2.94-.26-2.1-.5-4.09-.88-6.05-1.07-5.48-2.24-10.89-3.48-16.09-.64-2.68-.5-4.92.46-7.27l1.15-2.82c2.51-6.14,5.1-12.49,6.93-18.83.66-2.3.59-4.39.51-6.8-.05-1.44-.1-2.92,0-4.58-.01-.06-.03-.13-.04-.21-.22-1.02-.6-2.72.5-4.13l2.17-2.79,2.76,2.7c1.83,1.78,4.33,4.21,6.12,8.74,1.05,2.65,2.17,5.33,3.25,7.93,1.47,3.53,3,7.17,4.37,10.82,1.19,3.17,1.95,6.26,2.25,9.18.18,1.8-.6,3.44-1.23,4.75-.18.38-.37.76-.52,1.14-4.28,10.89-11.36,20.21-17.65,28.08-.58.72-1.31,1.01-1.7,1.17-.06.02-.14.05-.22.09l-3.82,1.8ZM618.59,103.78h0s0,0,0,0ZM627.62,48.08c-.03,1.73-.2,3.54-.77,5.52-1.91,6.62-4.56,13.1-7.12,19.38l-1.14,2.81c-.53,1.31-.59,2.46-.21,4.07,1.25,5.26,2.44,10.74,3.52,16.29.18.93.34,1.87.47,2.81,4.92-6.44,9.85-13.72,13.02-21.8.19-.49.43-1,.67-1.5.29-.6.76-1.59.73-1.93-.25-2.47-.9-5.12-1.94-7.87-1.34-3.56-2.85-7.17-4.3-10.65-.97-2.33-1.98-4.74-2.94-7.14Z"/>
        <path class="cls-1" d="M538.76,356.22c-5.15,1.58-11.05,2.18-16.29,1.55l-5.07-.61,3.09-3.84c1.02-1.26,2.03-2.5,3.03-3.72,2.19-2.68,4.25-5.2,6.23-7.81,2.73-3.6,5.43-7.23,8.12-10.86,2.41-3.25,4.81-6.49,7.25-9.71.98-1.3,2.39-2.42,3.86-3.09,10.38-4.67,18.73-10.11,25.52-16.64.43-.41.86-.83,1.28-1.25,1.54-1.51,3.13-3.07,5.05-4.51l12.25-9.13-7.72,12.66c-.68,1.11-1.34,2.23-2.01,3.35-1.46,2.47-2.98,5.02-4.64,7.48-8.1,11.94-16.3,23.84-23.97,34.92-1.32,1.91-2.79,3.9-4.66,5.55-1.31,1.16-2.85,1.93-4.21,2.61-.43.21-.86.43-1.27.65-1.76.95-3.74,1.76-5.85,2.41ZM528.86,352.32c4.59-.28,9.28-1.48,12.75-3.36.48-.26.97-.51,1.46-.75,1.11-.56,2.16-1.08,2.86-1.7,1.32-1.17,2.44-2.64,3.72-4.5,6.4-9.26,13.19-19.09,19.97-29.04-5.3,3.77-11.28,7.15-18.05,10.2-.52.23-1.1.71-1.48,1.2-2.43,3.21-4.82,6.44-7.22,9.67-2.71,3.65-5.41,7.3-8.16,10.92-1.89,2.48-3.82,4.86-5.86,7.35Z"/>
        <path class="cls-1" d="M600.74,55.16l-3.06-3.09c-.73-.73-1.42-1.46-2.1-2.17-1.41-1.48-2.75-2.87-4.16-4.11-3.11-2.71-6.38-5.23-9.18-7.33-.98-.74-2.82-2.12-2.25-5.15,1.31-7.07,2.26-13.43.59-19.68-.22-.82-.86-1.52-1.98-2.69-.69-.73-1.48-1.55-2.24-2.56l-3.99-5.34,6.99.92c2.92.39,10.32,1.58,15.9,4.32,4.04,1.98,7.84,4.36,11.51,6.65l1.66,1.04c4.37,2.72,3.81,7.41,3.55,9.67-1.05,8.86-4.83,16.86-9.29,25.66l-1.95,3.85ZM586.03,33.98s.07.06.12.09c2.88,2.17,6.26,4.77,9.5,7.59,1.24,1.08,2.37,2.22,3.52,3.4,3.41-6.96,5.97-13.17,6.78-19.93.33-2.76.1-3.81-.96-4.47l-1.67-1.04c-3.55-2.22-7.21-4.51-10.97-6.35-1.67-.82-3.82-1.58-6.25-2.22.16.36.29.73.4,1.14,1.94,7.23.9,14.44-.46,21.8Z"/>
        <path class="cls-1" d="M480.86,420.33c-2.14.66-4.54.94-6.75.8-5.54-.37-10.59-2.49-15.01-6.3l-2.51-2.16,2.69-2.06c1.12-.86,2.23-1.7,3.34-2.54,2.5-1.89,4.86-3.68,7.18-5.57,2.56-2.09,5.09-4.2,7.62-6.32,2.69-2.25,5.46-4.58,8.25-6.83,1.46-1.19,3.49-1.94,5.29-1.97,9.15-.13,17.2-2.39,24.54-6.9l-.19-.48,2.52-1.13c.44-.2.87-.31,1.27-.35l9.25-2.32-5.16,5.41.28.43-2,1.38c-2.53,2.63-4.06,4.49-6.16,7.04l-1.44,1.7c-8.07,7.49-16.14,14.82-25.78,23.53l-.2.18c-1.61,1.45-3.43,3.1-5.76,4.03-.41.16-.84.31-1.27.45ZM466.01,412.7c2.68,1.68,5.53,2.61,8.65,2.82,1.69.11,3.61-.19,5.16-.79,1.26-.5,2.58-1.7,3.86-2.85l.21-.18c8.66-7.82,16.05-14.54,23.31-21.25-5.14,1.6-10.56,2.48-16.26,2.56-.26,0-.91.22-1.31.54-2.74,2.22-5.5,4.53-8.17,6.77-2.55,2.14-5.1,4.28-7.69,6.38-2.4,1.95-4.91,3.86-7.34,5.7l-.41.31Z"/>
        <path class="cls-1" d="M557.41,28c-.67.21-1.49.3-2.48.23-5.79-.39-12.11-.68-19.33-.87-1.87-.05-4.44-.5-5.24-3.85-.66-2.76-1.37-4.96-2.23-6.9-1.75-3.91-2.68-4.75-7.15-6.35l-8.18-2.95,8.51-2.36c9.74-2.71,22.7-5.69,36.52-4.74l2.27.16.43,2.07c.16.79.37,1.54.56,2.26.47,1.74.95,3.54.87,5.45-.17,3.7-.66,7.39-1.13,10.96-.14,1.08-.28,2.15-.42,3.23-.1.78-.58,2.92-3,3.67ZM536.19,21.76c6.79.18,12.81.44,18.34.81.09-.68.18-1.36.27-2.03.46-3.46.93-7.04,1.09-10.51.05-1.1-.29-2.38-.69-3.86-.04-.15-.08-.3-.12-.45-7.6-.29-15.62.61-25.17,2.85,1.49,1.36,2.66,3.16,3.86,5.84.95,2.14,1.73,4.48,2.43,7.36Z"/>
        <path class="cls-1" d="M417.85,458.31c-.86.26-1.81.48-2.89.67-1.46.25-2.82-.15-3.95-.58-6.65-2.53-9.09-7.84-11.45-12.98-.26-.56-.52-1.13-.79-1.71l-1.34-2.85,3.23-.99c.9-.28,1.77-.53,2.62-.77,1.65-.47,3.22-.92,4.63-1.48,2.86-1.11,5.75-2.3,8.56-3.45,2.67-1.09,5.33-2.18,8.02-3.24.59-.23,3.64-1.32,5.8.14,6.63,4.48,13.39,5.51,21.27,3.24l19.93-5.73-17.42,10.75c-.99.61-2.01,1.4-3.08,2.24-1.61,1.26-3.28,2.56-5.2,3.51-8.82,4.38-17.87,8.66-25.86,12.43-.64.3-1.31.56-2.06.79ZM414.11,453.42c1.31-.24,2.32-.53,3.1-.9,7.43-3.51,15.78-7.46,23.99-11.5-4.9-.42-9.56-2.08-14.05-5.01-.13.03-.28.06-.39.11-2.66,1.04-5.29,2.12-7.93,3.2-2.83,1.16-5.75,2.35-8.66,3.49-1.47.57-2.95,1.02-4.49,1.46,1.93,4.14,3.69,7.38,7.72,8.92.39.15.6.21.71.23Z"/>
        <path class="cls-1" d="M600.11,229.1c-.15.05-.31.09-.47.13l-5.37,1.3,3.02-8.32c.98-2.68,1.95-5.35,2.9-8.04.31-.87.63-1.73.95-2.59.89-2.41,1.74-4.68,2.28-7,1.02-4.39,3.71-7.49,6.2-9.95,10.54-10.4,17.74-19.87,22.66-29.8.48-.97.92-1.95,1.37-2.94.22-.48.43-.96.65-1.44l.94-2.04,5.9.82-.57,2.82c-.17.82-.33,1.64-.49,2.46-.36,1.84-.73,3.74-1.18,5.63-.47,1.98-.98,3.96-1.49,5.93-.55,2.11-1.09,4.23-1.59,6.35-2.27,9.74-7.13,18.59-14.42,26.32-4.32,4.57-8.85,9.09-13.23,13.45-1.74,1.73-3.48,3.47-5.21,5.21-.8.8-1.73,1.37-2.85,1.71ZM630.28,179.63c-4.35,6.15-9.69,12.31-16.26,18.8-2,1.98-3.95,4.22-4.65,7.23-.62,2.64-1.56,5.19-2.47,7.64-.31.84-.62,1.68-.92,2.52-.06.18-.13.36-.19.54,3.7-3.7,7.47-7.48,11.06-11.29,6.59-6.98,10.98-14.97,13.03-23.75.13-.56.27-1.13.41-1.69Z"/>
        <path class="cls-1" d="M616.91,147.33l.19-7.06c.05-1.88.12-3.72.18-5.54.15-4.28.29-8.32.22-12.37-.06-3.58.91-6.7,3.06-9.83,7.45-10.84,11.99-19.59,14.69-28.36.38-1.23.6-2.44.83-3.73.27-1.49.55-3.03,1.1-4.73l2.85-8.85,2.97,8.72c1.01,2.96,4.17,18.8,3.7,24.08-.58,6.55-4.36,12.61-7.69,17.95l-.61.97c-3.35,5.4-6.98,10.74-10.48,15.91-1.44,2.12-2.88,4.25-4.3,6.38-.31.46-.66.77-.94,1.02-.1.09-.22.19-.37.33l-5.39,5.1ZM639.72,89.68c-2.95,7.98-7.39,16.11-14.04,25.79-1.51,2.2-2.14,4.2-2.1,6.68.05,2.78,0,5.53-.08,8.34,3.24-4.79,6.57-9.72,9.63-14.65l.61-.98c3.16-5.06,6.42-10.29,6.89-15.56.16-1.81-.28-5.63-.91-9.61Z"/>
        <path class="cls-1" d="M556.3,315.7c-.96.29-1.75.11-2.18,0-.09-.02-.2-.05-.34-.07l-4.12-.72,3.66-5.9c1.13-1.83,2.24-3.62,3.34-5.41l2.01-3.26c2.05-3.32,4.17-6.76,6.18-10.17,1.37-2.33,3.09-4.02,5.41-5.32,12.04-6.72,21.86-15.25,29.17-25.34.42-.59,1.45-1.57,3.49-1.41l4.17.33-1.71,3.57c-.32.66-.63,1.33-.94,2-.69,1.48-1.4,3.01-2.19,4.5-1.56,2.93-2.98,5.88-4.36,8.72-1.87,3.86-3.81,7.86-6.1,11.88-3.12,5.47-8.57,9.89-13.88,13.95-7.01,5.35-13.3,9.14-19.82,11.93l-.3.13c-.42.19-.9.4-1.46.57h-.04ZM591.43,276.91c-5.37,4.75-11.41,9.02-18.1,12.75-1.36.76-2.31,1.7-3.15,3.13-2.03,3.46-4.17,6.92-6.24,10.27l-2,3.25c-.15.24-.3.49-.45.73,4.05-2.2,8.17-4.91,12.6-8.3,4.83-3.68,9.75-7.66,12.33-12.19,1.84-3.23,3.41-6.38,5-9.64ZM604.47,262.58s-.01.02-.02.03c0,0,.01-.02.02-.03Z"/>
        <path class="cls-1" d="M612.5,78.55l-2.74-5.55c-.4-.8-.76-1.56-1.12-2.29-.77-1.58-1.43-2.94-2.15-4.3-.5-.95-1.03-1.89-1.56-2.82-.78-1.39-1.59-2.82-2.32-4.31-.67-1.37-.74-3.18-.18-4.61,2.52-6.51,4.99-13.53,5.97-20.74.59-4.35.29-7.76-.98-11.08l-1.6-4.18,4.79.39c.11,0,.21,0,.29,0,.54,0,1.81,0,2.78,1.03.94.99,1.89,1.98,2.84,2.97,2.62,2.72,5.33,5.53,7.79,8.52,2.69,3.27,2.14,7.2,1.69,10.37-1.62,11.58-6.33,22.15-10.72,30.98l-2.8,5.62ZM614.77,29.81c0,1.5-.11,3.07-.34,4.72-1.06,7.75-3.64,15.13-6.28,21.95-.02.09-.02.32.02.42.65,1.32,1.38,2.62,2.16,4,.55.98,1.11,1.96,1.63,2.96.19.35.37.7.55,1.06,3.26-7.12,6.27-15.13,7.45-23.59.35-2.49.68-4.83-.53-6.29-1.46-1.78-3.06-3.53-4.67-5.24Z"/>
        <path class="cls-1" d="M481.08,43.52c-1.97.6-4.2.59-6.61-1.61-3.48-3.17-7.4-3.84-11.99-2.08l-2.72,1.05-2.48-5.18,2.13-1.34c1.55-.97,3.09-1.96,4.63-2.95,3.49-2.24,7.09-4.55,10.77-6.68,4.94-2.86,10.09-5.5,15.07-8.06l1.31-.67c2.62-1.35,5.22-1.65,7.53-.89,1.57.52,3.7,1.78,4.95,4.84,1.09,2.67,1.61,5.45,2.11,8.14l.2,1.07c.41,2.11-1.49,4.17-3.01,4.85-3.3,1.47-6.62,2.92-9.95,4.36-3.5,1.52-7.01,3.04-10.49,4.6-.47.21-.95.4-1.46.56ZM479.2,38.2c.12-.04.36-.12.76-.3,3.51-1.57,7.03-3.1,10.56-4.63,3.1-1.34,6.19-2.69,9.27-4.06v-.08c-.49-2.54-.93-4.94-1.82-7.12-.25-.61-.69-1.38-1.39-1.61-.61-.2-1.5-.03-2.51.49l-1.31.67c-4.91,2.52-9.99,5.13-14.79,7.91-2.32,1.34-4.63,2.77-6.9,4.21,2.79.66,5.4,2.05,7.72,4.17.2.18.33.28.42.34ZM499.98,30.21s0,.01,0,.02v-.02ZM500.4,28.94h0s0,0,0,0Z"/>
        <path class="cls-1" d="M516.25,385.67c-5.81,1.78-12.11,1.76-18.24,1.73-1,0-2,0-3.01,0l-6.87.02,8.22-8.27c2.7-2.71,5.23-5.26,7.75-7.81.4-.4.81-.8,1.22-1.2,1.08-1.05,2.09-2.03,2.84-3.08,2.52-3.52,6.05-4.47,8.84-4.9,8.74-1.34,16.84-4.95,24.08-10.73.8-.64,1.93-1.4,3.62-1.65l7.28-1.08-4.42,5.51c-.64.79-1.27,1.59-1.9,2.38-1.39,1.76-2.83,3.58-4.33,5.34-.88,1.04-1.76,2.09-2.63,3.14-2.89,3.47-5.89,7.06-9.18,10.39-.66.67-1.35,1.48-2.08,2.33-1.81,2.13-3.87,4.55-6.57,5.97-1.5.79-3.05,1.41-4.64,1.9ZM501.94,381.77c5.9-.05,11.41-.45,16.01-2.88,1.64-.86,3.23-2.72,4.76-4.52.77-.9,1.56-1.83,2.38-2.66,2.61-2.63,5.07-5.5,7.45-8.35-4.66,2.11-9.55,3.57-14.64,4.36-2.46.38-3.68,1-4.68,2.39-1.05,1.47-2.31,2.69-3.52,3.87-.38.37-.76.74-1.13,1.11-2.17,2.2-4.35,4.39-6.64,6.69Z"/>
        <path class="cls-1" d="M581.08,36.98l-5.87-2.5c-1.41-.6-2.68-1.15-3.96-1.67-1.27-.52-2.64-1.07-4-1.54-4.71-1.64-5.53-2.69-5.47-7.06v-.79c.04-3.98-.05-8.62-.99-12.94-.25-1.16-1.25-2.44-2.3-3.81-.57-.74-1.16-1.5-1.68-2.31l-2.7-4.16,5.42-.15c.48-.04,1.28-.1,2.16,0,1.58.17,3.16.35,4.74.54,2.26.27,4.61.54,6.9.75,3.1.28,7.15,1.75,8.81,7.16,1.78,5.8,1.32,11.63.7,17.1-.19,1.7-.47,3.35-.76,5.11-.13.81-.27,1.63-.41,2.49l-.59,3.79ZM567.86,25.41c.44.18,1.14.43,1.61.59,1.51.52,2.97,1.11,4.32,1.66.81.34,1.63.68,2.47,1.04.2-1.23.38-2.42.52-3.59.58-5.13.98-10.14-.51-14.99-.75-2.44-2.01-3.04-3.66-3.19-2.38-.22-4.76-.5-7.07-.77-.03,0-.06,0-.09-.01.58.96,1.05,1.99,1.3,3.12,1.04,4.81,1.15,9.82,1.12,14.08v.82c-.02.43-.02.9-.01,1.23Z"/>
        <path class="cls-1" d="M404.63,89.42l-3.8-4.42,1.94-1.8c2.75-2.55,5.51-5.1,8.27-7.64,7.37-6.8,15-13.83,22.33-20.88,4.12-3.97,8.67-2.19,10.16-1.6,2.18.85,3.74,2.46,5.12,3.87.36.37.71.73,1.08,1.08.45.43.97,1.18.92,2.37-.04.92-.46,2.31-1.5,3.2-6.7,5.65-13.78,11.55-21.64,18.05-1.09.9-2.69,1.37-4.07,1.2-5.23-.64-10.13.86-15.43,4.7-.36.26-.71.44-.95.56l-.14.07-2.29,1.25ZM423.51,77.47s0,0-.01.01c0,0,0,0,.01-.01ZM417.64,77.34c2.04-.3,4.1-.34,6.18-.13,7.24-5.98,13.81-11.46,20.03-16.7-.94-.96-1.9-1.9-2.79-2.25-1.86-.73-2.47-.57-3.35.28-6.6,6.35-13.42,12.66-20.08,18.81Z"/>
        <path class="cls-1" d="M456.35,437.8c-5.4,1.66-11.25,1.15-17.47-1.53-1.72-.74-3.31-1.61-4.99-2.54-.78-.43-1.58-.87-2.44-1.32l-4.5-2.36,4.51-2.5c.89-.49,1.73-.95,2.53-1.39,1.67-.91,3.12-1.7,4.54-2.54,1.4-.82,2.79-1.66,4.18-2.49,1.91-1.15,3.88-2.33,5.86-3.46,1.06-.6,3.36-1.39,5.28-.55,7.34,3.21,14.2,3.44,20.95.72.77-.31,1.44-.29,1.77-.28l1.76-.09,1.18,1.8,1.44,2.11-3.99,3c-1.44,1.09-2.87,2.17-4.33,3.23-2.31,1.68-4.64,3.33-6.96,4.99l-2.46,1.75c-2.2,1.57-4.49,2.72-6.87,3.45ZM438.98,429.92c.87.46,1.7.88,2.55,1.24,6.93,2.99,12.67,2.59,18.03-1.24l2.47-1.76c1.33-.94,2.65-1.89,3.98-2.84-4.7.11-9.47-.85-14.29-2.89,0,0-.02,0-.02.01-1.91,1.09-3.85,2.25-5.72,3.38-1.41.85-2.83,1.7-4.26,2.54-.89.52-1.8,1.03-2.74,1.55Z"/>
        <path class="cls-1" d="M528.36,27.92c-.12.04-.23.06-.33.08-4.08.83-8.23,1.58-12.24,2.3l-5.47.99-1-1.92c-2.66-5.11-4.12-7.93-5.48-9.2-.97-.91-2.08-1.16-5.65-1.61l-8.94-1.12,7.96-4.12c4.55-2.35,9.51-4.02,14.31-5.63l2.07-.7c5.99-2.01,11.24.16,14.08,5.84,1.33,2.67,2.19,5.47,3.02,8.18.17.57.35,1.13.52,1.69.47,1.49-.32,2.94-.68,3.5-.67,1.04-1.5,1.5-2.16,1.7ZM513.81,24.95l.92-.17c3.34-.6,6.78-1.22,10.17-1.89-.02-.08-.05-.16-.07-.25-.8-2.62-1.56-5.1-2.69-7.37-1.97-3.95-4.52-3.68-6.55-2.99l-2.09.7c-2.23.75-4.4,1.48-6.5,2.26,2.44,1.62,4.05,4.41,6.82,9.7Z"/>
        <path class="cls-1" d="M348.95,154.71l8.48-13.18c.5-.78,1.16-1.81,1.84-2.84l.41-.62c.79-1.19,1.61-2.43,2.51-3.63,1.44-1.91,2.88-3.81,4.31-5.72,4.69-6.24,9.54-12.68,14.46-18.94,3.15-4.02,11.77-7.75,18.1-4.46l2.99,1.55-5.39,6.61c-2.77,3.39-5.5,6.74-8.23,10.1-.72.89-1.41,1.79-2.1,2.7l-.25.33c-3.08,4.04-6.58,8.2-12.59,10.89-3.01,1.35-5.78,3.52-8.46,5.63-1.19.93-2.41,1.9-3.63,2.76l-12.46,8.84ZM390.59,110.15c-2,.61-3.84,1.74-4.73,2.87-4.88,6.21-9.71,12.64-14.39,18.85-.11.15-.23.31-.34.46,4.55-2.09,7.33-5.41,10-8.92l.25-.33c.73-.96,1.45-1.91,2.21-2.85,2.73-3.36,5.47-6.71,8.24-10.1l.27-.33c-.5.08-1.01.2-1.51.35Z"/>
        <path class="cls-1" d="M458.04,56.87c-1.32.4-3.04.5-4.33-.42-3.49-2.49-6.81-2.62-11.36-.44-1.04.83-2.21,1.6-3.62,1.71l-8.98.71,6.77-5.6c1.43-1.19,2.97-2.7,4.45-4.16,1.72-1.7,3.34-3.3,4.93-4.55,1.68-1.32,3.43-2.56,5.13-3.76.67-.47,1.34-.95,2-1.43,3.34-2.4,7.42-3.35,11.48-2.65,4.46.76,8.62,3.46,10.86,7.05l1.43,2.29-4.5,2.75c-1.89,1.15-3.79,2.31-5.68,3.48-.74.45-1.48.92-2.21,1.38-1.66,1.04-3.37,2.11-5.13,3.11-.34.19-.76.38-1.23.52ZM456.19,51.54s-.01.02-.05.04c.03-.01.05-.03.08-.04-.01,0-.02,0-.03,0ZM449.18,48.88c2.57.16,5.02.98,7.37,2.47,1.52-.88,3.04-1.83,4.51-2.75.75-.47,1.5-.94,2.25-1.4,1.65-1.01,3.3-2.02,4.95-3.03-1.39-1.18-3.17-2.03-4.98-2.34-1.64-.28-4.11-.24-6.58,1.53-.68.49-1.36.97-2.04,1.45-1.63,1.16-3.32,2.36-4.89,3.58-.19.15-.39.31-.59.48Z"/>
        <path class="cls-1" d="M387.17,110.89l-4.2-4.15,1.64-1.92c1.24-1.45,2.48-2.9,3.72-4.34,2.87-3.34,5.74-6.69,8.57-10.06,2.99-3.56,6.87-6.13,11.52-7.63,3.96-1.24,7.89-1.56,11.95-.85l5.37.94-13.22,13c-.24.23-.49.46-.72.71-2.64,2.79-5.63,5.96-11.44,6.39-4.04.3-7.5,2.85-9.68,4.94-.3.29-.63.56-.95.82l-2.56,2.15ZM398.54,97.55c.49-.08.97-.13,1.46-.17,3.16-.23,4.74-1.76,7.27-4.44.3-.31.61-.62.93-.92l4.63-4.55c-.82.15-1.65.35-2.48.63-3.55,1.14-6.38,3.01-8.65,5.72-1.05,1.25-2.1,2.49-3.15,3.72Z"/>
        <g id="Lg5p1f.tif">
          <g>
            <path class="cls-4" d="M423.7,402.12c20.65-13.36,37.88-29.97,53.19-48.33,23.05-27.65,41.57-57.8,58.66-88.79,18.59-33.72,30.1-69.37,37.17-106.28,3.29-17.16,4.82-34.43,2.69-51.78-1.36-11.13-4.44-21.73-11.14-31.11-10.67-14.93-25.93-21.56-45.36-20.55-12.77.67-24.84,3.9-36.57,8.6-20.26,8.12-37.44,20.38-53.66,34.05-15.93,13.42-29.44,28.78-42.16,44.72-4.22,5.29-8.73,9.61-15.54,11.76-2.62.83-5.02,2.28-7.92,3.13,2.81-4.1,5.45-8.3,8.45-12.28,11.76-15.62,23.82-31.06,37.39-45.41,9.28-9.82,19.57-18.7,30.07-27.4,10.07-8.34,20.72-15.89,32.27-22.35,18.37-10.28,37.62-18.21,59.19-20.05,15.34-1.31,29.92.76,43.51,7.43,11.62,5.7,20.21,14.26,26.95,24.53,4.59,6.99,7.88,14.54,10.22,22.41,3,10.12,4.3,20.53,4.86,31.06.68,12.64.12,25.25-1.53,37.83-2.36,17.95-6.3,35.65-12.02,52.99-7.89,23.9-17.45,47.25-29.9,69.53-6.62,11.85-13.77,23.46-20.97,35.04-12.88,20.72-28.32,39.8-45.28,57.82-13.48,14.33-28.15,27.56-44.37,39.23-15.66,11.26-32.37,20.87-50.9,27.49-11.16,3.99-20.31-21.09,12.71-33.28Z"/>
            <path class="cls-4" d="M644.29,106.72c-.08,4.04.14,8.1-.28,12.12-1.26,12-2.72,23.99-4.19,35.97-.56,4.58-3.89,8.03-6.54,11.64-5.34,7.3-12.17,13.41-19.19,19.33-.16.14-.38.22-.97.56.45-2.35.86-4.42,1.25-6.49,1.83-9.82,3.63-19.65,5.51-29.46.22-1.13.67-2.32,1.37-3.26,7.56-10.07,14.57-20.41,19.4-31.86,1.18-2.8,2.03-5.7,3.03-8.56.21,0,.41,0,.62.01Z"/>
            <path class="cls-4" d="M577.82,274.83c1.78-3.49,3.67-6.94,5.33-10.48,3.78-8.09,7.59-16.17,11.08-24.35,1.37-3.21,3.5-5.64,6.16-7.93,10.84-9.38,20.33-19.75,27.18-32.02.45-.81.81-1.66,1.48-2.41-.65,2.16-1.26,4.33-1.95,6.48-.69,2.16-1.38,4.32-2.2,6.44-3.26,8.41-6.4,16.87-9.92,25.19-2.97,7.01-6.31,13.9-9.7,20.75-.74,1.49-2.35,2.65-3.63,3.9-5.36,5.25-11.64,9.35-18.54,12.65-1.61.77-3.23,1.51-4.84,2.26-.15-.16-.29-.32-.44-.48Z"/>
            <path class="cls-4" d="M621.2,105.76c-.43-3.12-.7-6.16-1.28-9.14-1.06-5.42-2.22-10.82-3.5-16.19-.47-1.97-.48-3.68.33-5.67,2.94-7.24,6.02-14.48,8.17-21.92,1.23-4.25.76-8.89,1.05-13.36.03-.45.02-.9.47-1.48,1.58,2.69,3.44,5.28,4.69,8.1,2.72,6.17,5.24,12.42,7.61,18.71,1.03,2.74,1.8,5.64,2.09,8.52.15,1.48-.97,3.11-1.57,4.66-3.95,10.06-10.4,18.81-17.23,27.35-.12.15-.39.19-.83.4Z"/>
            <path class="cls-4" d="M523.92,354.91c3.24-4.02,6.38-7.74,9.31-11.6,5.18-6.82,10.21-13.75,15.37-20.58.66-.87,1.64-1.68,2.67-2.14,9.81-4.41,18.79-9.92,26.41-17.23,1.94-1.86,3.77-3.82,6.05-5.52-2.18,3.58-4.22,7.24-6.57,10.71-7.91,11.67-15.92,23.29-23.95,34.89-1.23,1.78-2.56,3.58-4.19,5.02-1.37,1.21-3.23,1.95-4.9,2.86-5.41,2.93-13.43,4.4-20.19,3.59Z"/>
            <path class="cls-4" d="M581.3,5.36c4.75,1.85,9.31,3.29,13.51,5.35,4.49,2.2,8.68,4.92,12.91,7.54,2.72,1.69,2.55,4.52,2.25,7.07-1.03,8.71-4.88,16.6-9.01,24.76-2.28-2.3-4.21-4.5-6.41-6.42-2.99-2.61-6.15-5.06-9.34-7.46-.96-.72-1.45-1.2-1.2-2.53,1.29-6.93,2.4-13.91.54-20.83-.63-2.36-1.95-4.56-3.24-7.48Z"/>
            <path class="cls-4" d="M521.62,380.95c-3.19,3.31-5.89,6.37-8.89,9.16-8.51,7.9-17.12,15.71-25.74,23.5-1.52,1.37-3.13,2.88-5.01,3.62-2.01.8-4.42,1.16-6.59,1.02-5.01-.33-9.36-2.26-13.19-5.57,3.6-2.76,7.17-5.38,10.59-8.16,5.33-4.34,10.52-8.82,15.86-13.15.86-.69,2.19-1.24,3.3-1.26,10.48-.15,19.98-3.02,28.48-8.85.16-.11.41-.11,1.2-.31Z"/>
            <path class="cls-4" d="M523.14,7.58c11.61-3.23,23.34-5.46,35.41-4.63.54,2.6,1.48,4.84,1.38,7.07-.21,4.67-.95,9.33-1.53,13.98-.14,1.14-.73,1.46-2.18,1.36-6.48-.44-12.97-.7-19.47-.87-1.47-.04-2.07-.27-2.41-1.68-.59-2.5-1.34-5.01-2.39-7.36-2.13-4.78-3.74-6.04-8.81-7.86Z"/>
            <path class="cls-4" d="M402.55,442.47c2.74-.84,5.18-1.43,7.48-2.32,5.55-2.16,11.03-4.51,16.58-6.69.85-.33,2.23-.56,2.83-.16,7.21,4.86,14.98,6.92,24,4.32-2.68,1.65-5.25,3.52-8.07,4.93-8.54,4.24-17.17,8.32-25.8,12.4-1.27.6-2.71.95-4.12,1.2-.7.12-1.54-.16-2.24-.42-6.17-2.35-8.02-7.68-10.65-13.25Z"/>
            <path class="cls-4" d="M638.58,161.5c-.54,2.67-1.02,5.35-1.65,8-.98,4.11-2.12,8.18-3.08,12.3-2.2,9.44-6.87,17.77-13.73,25.03-5.98,6.32-12.24,12.42-18.38,18.6-.44.44-.99.8-1.82,1,1.39-3.84,2.8-7.66,4.16-11.51,1.16-3.28,2.52-6.52,3.31-9.88.81-3.49,2.88-6.07,5.43-8.59,9.3-9.18,17.52-19.08,23.22-30.57.73-1.47,1.37-2.97,2.05-4.45.16.02.32.04.48.07Z"/>
            <path class="cls-4" d="M621.14,140.21c.17-6.28.5-12.16.4-18.02-.05-3.09.77-5.62,2.58-8.25,6.29-9.14,11.83-18.65,15.06-29.11.89-2.87,1.37-5.84,2.33-8.81.51,3.07,1.2,6.12,1.49,9.2.45,4.79,1.18,9.65.76,14.41-.56,6.29-3.61,12.07-7,17.52-4.68,7.53-9.79,14.82-14.73,22.21-.15.23-.41.39-.89.85Z"/>
            <path class="cls-4" d="M555.4,312.8c1.69-2.72,3.3-5.31,4.9-7.91,2.75-4.48,5.55-8.95,8.21-13.47,1.05-1.79,2.34-3.14,4.28-4.23,12.06-6.73,22.27-15.33,30.15-26.2.08-.11.22-.18.66-.15-1.02,2.13-1.96,4.3-3.08,6.4-3.7,6.97-7.33,13.97-11.25,20.83-2.93,5.14-7.51,9.12-12.28,12.76-5.9,4.5-12.17,8.55-19.15,11.54-.48.21-.96.43-1.46.59-.18.06-.42-.06-.99-.16Z"/>
            <path class="cls-4" d="M613.53,71.73c-1.25-2.53-2.22-4.61-3.3-6.65-1.25-2.37-2.67-4.66-3.84-7.06-.35-.71-.39-1.76-.1-2.51,2.7-6.97,5.12-13.98,6.13-21.35.57-4.17.46-8.21-1.13-12.36.57.05.96-.03,1.08.11,3.54,3.75,7.25,7.39,10.51,11.34,1.95,2.37,1.51,5.45,1.11,8.33-1.46,10.41-5.46,20.11-10.46,30.15Z"/>
            <path class="cls-4" d="M462.09,36.61c5.09-3.2,10.09-6.55,15.3-9.57,5.3-3.06,10.78-5.85,16.24-8.66,3.56-1.83,6.76-.96,8.19,2.53,1.13,2.76,1.6,5.77,2.16,8.7.1.52-.67,1.51-1.29,1.78-6.79,3.03-13.65,5.92-20.44,8.96-1.83.82-2.95.98-4.62-.54-4.25-3.88-9.45-4.9-15.27-2.65-.09-.19-.18-.37-.27-.56Z"/>
            <path class="cls-4" d="M496.05,384.51c4.09-4.12,7.7-7.74,11.3-11.37,1.49-1.51,3.15-2.94,4.36-4.63,1.67-2.33,3.9-3.21,6.76-3.65,9.67-1.49,18.15-5.44,25.6-11.39.56-.45,1.16-.85,2.09-.98-2.05,2.56-4.05,5.16-6.18,7.67-3.81,4.51-7.48,9.15-11.65,13.36-2.42,2.44-5.51,4.48-8.64,6.13-7.12,3.75-14.95,4.83-23.63,4.86Z"/>
            <path class="cls-4" d="M579.66,32.76c-2.36-1-4.24-1.82-6.14-2.6-1.37-.56-2.75-1.12-4.16-1.6-3.87-1.34-3.56-1.33-3.53-5.24.04-4.52-.11-9.12-1.06-13.51-.55-2.52-2.85-4.68-4.35-7,.29,0,1.09-.11,1.87-.03,3.9.41,7.78.93,11.69,1.29,3.52.32,5.34,2.25,6.24,5.17,1.62,5.28,1.22,10.66.6,16.05-.27,2.4-.73,4.78-1.16,7.49Z"/>
            <path class="cls-4" d="M405.9,85.1c10.24-9.5,20.59-18.89,30.64-28.56,2.37-2.28,4.75-1.73,6.76-.94,2.06.81,3.58,2.77,5.23,4.34.22.21-.05,1.22-.41,1.52-7.17,6.05-14.38,12.05-21.61,18.03-.4.33-1.11.56-1.62.5-6.78-.82-12.49,1.49-17.73,5.28-.23.16-.5.28-.75.41-.17-.2-.34-.39-.51-.59Z"/>
            <path class="cls-4" d="M477.95,420.74c-2.05,1.54-4.07,3.1-6.15,4.6-3.12,2.26-6.27,4.49-9.41,6.73-6.77,4.83-13.91,4.71-21.19,1.57-2.35-1.01-4.53-2.34-7.21-3.76,2.74-1.52,4.97-2.69,7.14-3.96,3.35-1.96,6.64-4.02,10.02-5.94.66-.37,1.78-.65,2.38-.39,7.66,3.36,15.44,3.98,23.46.75.19-.08.44-.03.66-.04.1.15.2.29.3.44Z"/>
            <path class="cls-4" d="M499.23,15.57c5.45-2.01,10.85-4.13,16.35-5.99,4.43-1.5,8.11,0,10.31,4.42,1.5,3,2.38,6.29,3.39,9.49.15.47-.44,1.62-.85,1.71-5.11,1.04-10.25,1.93-15.37,2.87-5.72-10.99-6.35-11.55-13.83-12.49Z"/>
            <path class="cls-4" d="M398.54,107.69c-3.9,4.78-7.72,9.45-11.53,14.13-.83,1.02-1.61,2.06-2.41,3.1-3.07,4.02-6.21,7.63-11.39,9.95-4.8,2.15-8.77,5.95-12.63,8.7.48-.75,1.36-2.14,2.27-3.52.92-1.38,1.82-2.78,2.83-4.11,6.21-8.23,12.36-16.5,18.74-24.62,2.49-3.17,9.44-6.06,14.12-3.63Z"/>
            <path class="cls-4" d="M440.14,53.35c3.17-2.62,5.88-4.95,8.69-7.15,2.27-1.78,4.68-3.42,7.03-5.11,6.57-4.73,14.73-1.36,17.85,3.64-2.58,1.57-5.17,3.15-7.76,4.74-2.42,1.48-4.79,3.03-7.26,4.44-.57.33-1.71.53-2.11.24-4.86-3.46-9.94-3.55-15.3-.89-.12.06-.29.03-1.15.1Z"/>
            <path class="cls-4" d="M387.98,106.48c4.11-4.81,8.26-9.59,12.32-14.42,2.66-3.17,6.04-5.37,10.09-6.67,3.25-1.05,6.58-1.4,10.38-.74-3.17,3.12-6.07,5.97-8.97,8.83-.42.41-.85.81-1.25,1.23-2.53,2.67-4.82,5.08-9.35,5.41-4.39.32-8.42,2.71-11.67,5.81-.36.34-.76.64-1.14.96-.13-.13-.27-.26-.4-.4Z"/>
          </g>
        </g>
      </g>
      <g>
        <path class="cls-3" d="M427.27,416.5v-84.4c.77-.08,1.4-.18,2.02-.2q4.92-.14,5.77-5.12c2.16-12.78-4.21-25.16-16.43-31.91-17.33-9.57-39.83-2.69-48.08,14.83-1.37,2.91-2.11,6.8-3.15,10.03-.05-1.11-.07-2.84-.08-3.94-.02-5.51.13-11.02-.08-16.52-.1-2.69.86-4.52,2.73-6.33,18.09-17.56,47.78-16.33,64.24,2.71,1.66,1.92,2.51,3.89,2.5,6.54-.08,34.63-.07,69.26,0,103.89,0,2.1-6.92,9.49-9.45,10.43Z"/>
        <path class="cls-5" d="M426.39,417.76v-86.45l1.48-.16c.49-.06.94-.11,1.39-.12q4.2-.12,4.93-4.39c2.12-12.5-4.01-24.37-15.99-30.99-8.23-4.55-18.16-5.46-27.25-2.52-8.85,2.86-15.81,8.89-19.62,16.96-.86,1.83-1.48,4.12-2.08,6.33-.33,1.23-.66,2.45-1.03,3.59l-1.5,4.65-.21-4.88c-.05-1.12-.07-2.87-.08-3.98,0-1.76,0-3.53.02-5.29.02-3.67.04-7.47-.09-11.2-.1-2.77.79-4.86,2.99-6.99,8.82-8.56,20.97-13.15,33.46-12.61,12.39.54,24.07,6.15,32.05,15.37,1.88,2.18,2.72,4.37,2.72,7.11-.07,32.41-.07,66.39,0,103.89,0,2.69-7.46,10.3-10.02,11.25l-1.18.44ZM428.14,332.88v82.13c2.92-2.06,7.7-7.64,7.7-8.93-.06-27.81-.07-53.69-.05-78.42-.83,4.68-1.4,4.98-6.47,5.13-.39.01-.77.05-1.19.1ZM401.7,289.68c6.05,0,12.04,1.5,17.36,4.43,9.04,5,15.01,13.15,16.76,22.24,0-4.76.02-9.48.03-14.17,0-2.32-.68-4.1-2.29-5.96-7.67-8.87-18.89-14.25-30.8-14.77-11.97-.55-23.69,3.89-32.16,12.12-1.83,1.78-2.55,3.42-2.46,5.67.14,3.76.11,7.58.09,11.27,0,1.06-.01,2.12-.02,3.18.44-1.54.94-3.04,1.56-4.36,4.01-8.52,11.35-14.87,20.66-17.88,3.68-1.19,7.49-1.78,11.28-1.78Z"/>
      </g>
      <g>
        <path class="cls-3" d="M376.05,417.37c-2.55-.98-8.79-8.88-8.77-10.51.08-7.27.04-14.54.04-21.82,0-18.74,0-37.48,0-56.22,0-1.46-.14-8.53.25-9.99.73-.2.67,10.98,1.9,12.18,1.13,1.1,3.74.68,5.7.95.26.04.51.18.89.33v85.09Z"/>
        <path class="cls-5" d="M376.93,418.64l-1.19-.45c-2.64-1.01-9.36-9.17-9.33-11.34.06-5.47.05-10.94.04-16.41l-.02-62.62c-.04-4.08-.03-8.02.29-9.21l.13-.49.88-.24.4.25c.58.41.68,1.17,1,5.29.17,2.22.49,6.35.97,7,.51.5,1.9.53,3.13.56.71.02,1.42.04,2.06.12.29.04.54.15.77.25l.88.35v86.96ZM368.18,330.26v60.17c.02,5.48.03,10.95-.03,16.43.09,1.12,4.34,6.77,7.02,8.93v-82.93c-.06-.02-.11-.04-.14-.05-.58-.08-1.22-.09-1.86-.11-1.62-.04-3.31-.08-4.33-1.08-.28-.27-.49-.71-.67-1.37Z"/>
      </g>
      <path d="M380.57,339.47h42.75v104.27s-2.42,18.8-18.8,18.8-24.01-9.86-24.2-18.98.24-104.08.24-104.08Z"/>
      <g id="wehaAO">
        <g>
          <path class="cls-2" d="M392.74,372.47c.17-1.76.25-3.52.57-5.27.09-.48.71-1.05,1.36-1.35,1.96-.89,4.01-1.7,6.11-2.46,1.61-.58,2.65-.19,2.73.98.08,1.22.13,2.44-.03,3.65-.07.5-.49,1.19-1.11,1.43-2.91,1.15-5.94,2.18-8.93,3.25-.24-.08-.47-.17-.71-.25Z"/>
          <path class="cls-2" d="M392.69,420.39c.2-2.25.22-3.98.57-5.67.12-.57.88-1.22,1.65-1.58,1.81-.85,3.77-1.58,5.72-2.3,1.73-.64,2.8-.27,2.88.98.08,1.17.11,2.34-.03,3.5-.06.51-.4,1.22-.99,1.46-2.96,1.19-6.06,2.24-9.79,3.6Z"/>
          <path class="cls-2" d="M392.72,451.42c.19-1.8.31-3.61.63-5.4.08-.44.7-.95,1.3-1.22,1.99-.87,4.05-1.67,6.15-2.42,1.6-.58,2.62-.2,2.7.99.09,1.22.13,2.44-.03,3.65-.07.5-.48,1.19-1.1,1.43-2.9,1.15-5.93,2.17-8.91,3.24-.25-.09-.5-.18-.74-.27Z"/>
          <path class="cls-2" d="M392.69,436.12c.21-2.21.26-3.93.58-5.62.1-.53.75-1.16,1.45-1.48,1.88-.87,3.88-1.64,5.91-2.37,1.77-.64,2.74-.27,2.9.98,0,.05,0,.1,0,.15-.06,5.38.9,4.18-6.02,6.69-1.37.5-2.78.95-4.83,1.65Z"/>
          <path class="cls-2" d="M392.73,388.27c.17-1.76.25-3.52.56-5.27.09-.49.71-1.06,1.37-1.36,1.97-.88,4.03-1.69,6.13-2.45,1.63-.58,2.64-.21,2.72.98.09,1.22.12,2.44-.04,3.65-.07.5-.49,1.19-1.11,1.43-2.91,1.15-5.95,2.18-8.94,3.26-.23-.08-.46-.17-.69-.25Z"/>
          <path class="cls-2" d="M392.75,404.05c.17-1.76.23-3.52.57-5.27.1-.52.85-1.11,1.57-1.44,1.82-.83,3.76-1.57,5.71-2.29,1.88-.69,2.86-.32,2.93,1.08.06,1.11.13,2.24-.04,3.35-.09.56-.47,1.31-1.12,1.58-2.89,1.16-5.93,2.18-8.91,3.25-.23-.09-.47-.17-.7-.26Z"/>
          <path class="cls-2" d="M392.7,356.74c.22-1.9.34-3.75.72-5.58.1-.46.9-.96,1.58-1.26,1.78-.79,3.64-1.52,5.52-2.21,1.97-.73,3.04-.34,3.01,1.14-.1,5.36,1.04,4.07-6.08,6.68-1.18.43-2.4.83-3.62,1.22-.19.06-.46,0-1.13,0Z"/>
          <path class="cls-2" d="M411.58,380.96c-3.54-1.3-6.68-2.39-9.71-3.61-.53-.21-.78-.88-.83-1.36-.12-1.17-.11-2.34-.05-3.51.06-1.28,1.04-1.62,2.83-1.02.57.19,1.06.5,1.66.63,6.65,1.47,6.41,4.91,6.11,8.86Z"/>
          <path class="cls-2" d="M411.12,428.17c-2.99-1.07-6.02-2.09-8.93-3.23-.62-.24-1.06-.92-1.12-1.42-.16-1.26-.12-2.53-.05-3.79.06-1.14,1.16-1.44,2.62-.92,2.17.77,4.26,1.64,6.32,2.52.5.21,1.04.61,1.1.95.34,1.88.55,3.77.8,5.66-.25.08-.49.16-.74.24Z"/>
          <path class="cls-2" d="M411.2,396.62c-3.1-1.12-6.24-2.21-9.27-3.4-.54-.21-.84-.87-.89-1.33-.12-1.21-.11-2.43-.02-3.64.08-1.19,1.1-1.58,2.69-1,2.09.75,4.12,1.59,6.12,2.44.51.21,1.11.58,1.18.91.37,1.92.6,3.86.87,5.79-.23.08-.45.16-.68.24Z"/>
          <path class="cls-2" d="M411.08,364.98c-2.95-1.05-5.95-2.04-8.8-3.18-.68-.27-1.15-1-1.23-1.55-.18-1.21-.11-2.44-.02-3.66.09-1.2,1.08-1.53,2.75-.92,2.03.74,4.02,1.53,5.96,2.36.57.24,1.23.66,1.31,1.05.37,1.88.56,3.78.81,5.67-.26.08-.52.16-.78.23Z"/>
          <path class="cls-2" d="M411.07,443.96c-2.92-1.04-5.89-2.04-8.73-3.17-.68-.27-1.18-.98-1.27-1.52-.19-1.2-.14-2.43-.05-3.64.09-1.21,1.05-1.58,2.66-1,2.16.78,4.25,1.65,6.32,2.51.44.18.94.52,1,.82.35,1.92.59,3.85.87,5.78-.27.07-.54.15-.8.22Z"/>
          <path class="cls-2" d="M411.88,412.64c-3.69-1.3-6.68-2.3-9.54-3.41-.64-.25-1.18-.9-1.25-1.39-.18-1.31-.15-2.64-.05-3.96.08-1.02,1.12-1.38,2.51-.88,2.24.81,4.41,1.71,6.55,2.62.49.21.98.63,1.04.99.31,1.84.47,3.7.75,6.04Z"/>
          <path class="cls-2" d="M411.08,349.17c-2.87-1.02-5.82-1.98-8.58-3.11-.78-.32-1.27-1.14-1.44-1.79-.24-.89-.08-1.51-.05-2.43.04-1.64,1.14-1.58,3.4-.84,1.93.63,3.75.54,5.55,1.32.5.21,1.04.61,1.11.96.34,1.89.53,3.78.77,5.67-.25.07-.51.14-.76.21Z"/>
          <path class="cls-2" d="M405.77,348.64c3.34,1.44,6.49,2.75,9.52,4.16.64.3,1.09.93,1.2,1.45.3,1.36.41,2.73.47,4.1.01.26-.44.63-.83.77-.22.07-1.08-.21-1.13-.38-.58-2.17-3.64-2.7-6.04-3.63-4-1.54-4.93-3.11-3.19-6.47Z"/>
          <path class="cls-2" d="M406.01,364.49c3.22,1.45,7.11,2.58,9.44,4.47,1.61,1.3,1.1,3.64,1.47,5.53.03.14-.54.48-.78.46-.41-.03-1.07-.23-1.13-.42-.59-2.08-3.38-2.78-5.85-3.5-3.26-.95-4.63-2.35-4.08-4.56.13-.52.02-1.07.02-1.61.3-.12.6-.25.9-.37Z"/>
          <path class="cls-2" d="M405.81,411.87c3.27,1.39,6.39,2.64,9.33,4.04.79.38,1.25,1.2,1.43,1.87.31,1.2.34,2.43.37,3.65,0,.3-.39.61-.6.91-.47-.14-1.3-.24-1.35-.42-.62-2.24-3.85-2.72-6.29-3.69-3.72-1.47-4.71-3.24-2.88-6.35Z"/>
          <path class="cls-2" d="M405.73,380.21c3.42,1.49,6.9,2.64,9.61,4.29,2.47,1.51,1.27,3.85,1.53,5.83.01.11-.62.39-.88.36-.41-.05-1.02-.28-1.07-.48-.54-2.06-3.43-2.55-5.71-3.41-4.33-1.64-5.14-2.91-3.47-6.59Z"/>
          <path class="cls-2" d="M405.71,427.61c3.44,1.49,6.67,2.8,9.7,4.28.75.37.98,1.25,1.2,1.93.23.74.28,1.52.21,2.28-.06.69-.39,1.37-.6,2.05-.66-.56-1.29-1.12-1.98-1.66-.45-.35-.91-.71-1.49-.96-1.13-.49-2.35-.89-3.53-1.34-4.35-1.63-5.13-2.92-3.5-6.58Z"/>
          <path class="cls-2" d="M405.93,396.07c3.26,1.45,7.15,2.54,9.4,4.4,1.64,1.36,1.15,3.74,1.54,5.68.02.11-.6.41-.85.38-.41-.05-1.04-.27-1.1-.47-.64-2.32-4.03-2.75-6.52-3.74-3.35-1.34-4.44-3.54-2.47-6.25Z"/>
          <path class="cls-2" d="M387.85,367.29c-1.3-5.12,3.02-9.02,10.99-10.23,1.69,2.69.62,4.61-3.17,6.08-2.38.93-5.5,1.39-6.12,3.58-.07.23-1.05.36-1.7.57Z"/>
          <path class="cls-2" d="M399.31,404.54c0,1.26.18,2.53-.08,3.77-.12.55-.99,1.14-1.77,1.5-1.43.66-3.16,1.06-4.53,1.75-1.18.59-2.01,1.45-3.05,2.16-.49.34-1.12.59-1.68.89-.21-.4-.48-.79-.61-1.2-.09-.29.08-.61.04-.91-.36-2.77,1.28-4.79,5.37-6.03,1.98-.6,3.76-1.46,5.63-2.21.23.1.45.19.68.29Z"/>
          <path class="cls-2" d="M399.29,420.31c0,1.3.16,2.62-.08,3.91-.09.5-.95,1.03-1.68,1.36-1.37.62-2.87,1.14-4.36,1.64-1.6.55-3.01,1.13-3.42,2.39-.1.3-.98.51-1.5.76-.23-.33-.68-.67-.66-1,.05-1.22.17-2.44.42-3.65.11-.53.39-1.21.99-1.5,3.11-1.48,6.35-2.86,9.54-4.27.25.12.5.24.75.35Z"/>
          <path class="cls-2" d="M399.25,344.98c-.12.56-.86,1.2-1.61,1.56-1.48.7-3.28,1.13-4.72,1.85-1.18.59-2.03,1.44-3.05,2.16-.45.31-.96.59-1.44.88-.29-.4-.79-.8-.84-1.22-.09-.75.08-1.52.15-2.28.16-1.72,1.12-3.1,3.69-4,2.73-.96,5.27-2.15,7.91-3.2-.09,1.41.19,2.86-.09,4.26Z"/>
          <path class="cls-2" d="M399.29,436.12c0,1.3.16,2.62-.08,3.91-.09.5-.97,1.03-1.7,1.36-1.37.62-2.87,1.13-4.36,1.64-1.61.54-3,1.14-3.4,2.4-.1.31-.98.51-1.5.77-.23-.34-.67-.69-.66-1.02.04-1.22.16-2.44.39-3.64.09-.48.32-1.12.86-1.38,3.16-1.51,6.42-2.94,9.65-4.39.27.12.54.25.81.37Z"/>
          <path class="cls-2" d="M399.31,372.95c0,1.26.18,2.53-.08,3.76-.12.55-.98,1.14-1.76,1.5-1.42.66-3.15,1.06-4.53,1.75-1.18.59-2.05,1.43-3.07,2.15-.44.31-.95.59-1.42.88-.29-.41-.73-.8-.84-1.23-.13-.49.11-1.01.06-1.52-.21-2.32,1.24-3.98,4.57-5.08,2.23-.74,4.28-1.69,6.42-2.55.22.1.44.21.66.31Z"/>
          <path class="cls-2" d="M399.29,388.16c0,1.84.18,3.16-.09,4.45-.11.54-1.07,1.1-1.86,1.47-1.29.6-2.75,1.06-4.17,1.55-1.6.55-3.02,1.13-3.42,2.4-.1.31-.98.51-1.5.77-.23-.33-.63-.66-.67-1.01-.07-.66.12-1.32.09-1.98-.09-2.13,1.22-3.68,4.3-4.71,2.31-.77,4.44-1.76,7.31-2.92Z"/>
          <path class="cls-2" d="M405.99,443.52c3.15,1.37,6.35,2.7,9.43,4.13,1.34.62.67,1.47.03,2.2-.5.57-1.09,1.11-1.77,1.79-2.48-.92-4.9-1.72-7.13-2.7-.73-.32-1.27-1.06-1.38-1.65-.21-1.13-.06-2.29-.06-3.43.29-.11.58-.22.87-.34Z"/>
          <path class="cls-2" d="M410.47,453.76c-3,.49-6.01.98-9.46,1.54,0-1.69-.08-2.89.02-4.09.09-1.09,1.32-1.27,2.56-.83,2.36.84,4.6,1.81,6.89,2.73,0,.22,0,.43-.01.65Z"/>
          <path class="cls-2" d="M413.61,359.63c2.59.74,3.84,1.78,3.56,3.58-.26,1.64-.06,3.3-.06,5.06-3.51-1.85-4.74-4.95-3.5-8.64Z"/>
          <path class="cls-2" d="M417.11,431.53c-4.89-2.5-3.57-5.62-3.86-8.57,2.76.42,3.85,1.23,3.85,2.76.01,1.89,0,3.78,0,5.8Z"/>
          <path class="cls-2" d="M417.12,415.68c-5-2.38-3.54-5.56-3.9-8.74,2.42.76,4.18,1.39,3.95,3.19-.23,1.8-.05,3.61-.05,5.55Z"/>
          <path class="cls-2" d="M413.33,375.31c2.59.85,4.13,1.68,3.84,3.48-.28,1.72-.06,3.47-.06,5.36-4.76-2.45-3.73-5.59-3.78-8.84Z"/>
          <path class="cls-2" d="M417.11,399.99c-4.68-2.47-3.78-5.58-3.77-8.58,2.67.38,3.76,1.18,3.76,2.74,0,1.87,0,3.74,0,5.84Z"/>
          <path class="cls-2" d="M413.18,438.44c2.73.92,4.28,1.76,4,3.56-.26,1.64-.06,3.32-.06,5.2-5.03-2.41-3.5-5.55-3.94-8.76Z"/>
          <path class="cls-2" d="M391.31,399.14c-.46,2.88,1.06,6.05-3.74,8.43,0-2.35-.23-4.64.14-6.9.11-.66,1.9-1.22,2.92-1.82.23.09.45.19.68.28Z"/>
          <path class="cls-2" d="M387.5,360.24c0-2.25-.28-4.34.13-6.37.18-.88,1.79-1.65,3.15-2.32.19,3.09,1.46,6.22-3.28,8.7Z"/>
          <path class="cls-2" d="M391.31,430.75c-.5,2.87,1.07,6.06-3.77,8.38,0-2.27-.24-4.52.14-6.73.12-.71,1.9-1.31,2.92-1.96.24.1.47.2.71.3Z"/>
          <path class="cls-2" d="M387.5,423.38c0-2.2-.28-4.24.13-6.24.18-.91,1.72-1.71,3.07-2.41.31,3.07,1.6,6.2-3.19,8.65Z"/>
          <path class="cls-2" d="M391.36,383.34c-.67,2.85,1.19,6.06-3.79,8.36,0-2.26-.23-4.54.14-6.78.11-.68,1.88-1.25,2.88-1.87.26.1.51.19.77.29Z"/>
          <path class="cls-2" d="M391.3,367.57c-.46,2.87,1.06,6.03-3.76,8.36,0-2.27-.25-4.49.14-6.66.13-.73,1.86-1.35,2.87-2.02.25.11.5.21.75.32Z"/>
          <path class="cls-2" d="M413.25,343.83c3.2,1.08,4.71,5.17,3.52,8.53-4.47-2.24-3.29-5.38-3.52-8.53Z"/>
          <path class="cls-2" d="M391.12,446.47v4.75c-.25.06-.51.12-.76.18-.78-1.13-1.91-2.23-2.19-3.42-.12-.5,1.56-1.16,2.42-1.75.18.08.35.15.53.23Z"/>
          <path class="cls-2" d="M393.8,453.53c2.04-.81,3.47-1.37,5.36-2.12v3.44c-1.68-.41-3.2-.79-5.36-1.32Z"/>
        </g>
      </g>
      <g>
        <path class="cls-3" d="M715.75,95.93h31.69c1.55,0,3.01.29,4.36.86,1.35.57,2.53,1.37,3.54,2.38,1.01,1.01,1.81,2.2,2.38,3.54.57,1.35.86,2.8.86,4.36v45.16c0,1.55-.29,3-.86,4.35-.57,1.35-1.36,2.53-2.38,3.54-1.01,1.01-2.2,1.81-3.54,2.38-1.35.58-2.8.86-4.36.86h-31.69v-67.44ZM748.97,109.1c0-1.21-.42-2.23-1.27-3.04-.84-.81-1.87-1.22-3.09-1.22h-19.24v49.62h19.24c1.22,0,2.25-.41,3.09-1.22.85-.81,1.27-1.82,1.27-3.04v-41.11Z"/>
        <path class="cls-3" d="M783.89,163.37h-9.62v-67.44h9.62v67.44Z"/>
        <path class="cls-3" d="M849.61,163.37h-9.72l-5.47-16h-24.81l-5.26,16h-9.82l22.99-67.44h9.11l22.99,67.44ZM812.56,138.67h19.03l-9.52-29.87-9.51,29.87Z"/>
        <path class="cls-3" d="M880.5,128.64h22.48v23.56c0,1.56-.29,3.01-.86,4.37-.57,1.35-1.37,2.54-2.38,3.55-1.01,1.01-2.2,1.81-3.54,2.39-1.35.58-2.8.86-4.36.86h-21.57c-1.55,0-3-.28-4.36-.86-1.35-.57-2.52-1.36-3.49-2.38-.98-1.01-1.76-2.19-2.33-3.54-.57-1.35-.86-2.8-.86-4.35v-45.16c0-1.55.28-3,.86-4.36.57-1.35,1.35-2.53,2.33-3.54.97-1.01,2.14-1.81,3.49-2.38,1.35-.57,2.8-.86,4.36-.86h21.57c1.55,0,3,.29,4.36.86,1.35.57,2.53,1.37,3.54,2.38,1.01,1.01,1.81,2.2,2.38,3.54.57,1.35.86,2.8.86,4.36v8.91h-9.62v-6.89c0-1.21-.41-2.23-1.22-3.04-.81-.81-1.82-1.22-3.04-1.22h-15.9c-1.21,0-2.25.41-3.09,1.22-.84.81-1.26,1.83-1.26,3.04v41.11c0,1.22.42,2.23,1.26,3.04.84.81,1.88,1.22,3.09,1.22h15.9c1.22,0,2.23-.41,3.04-1.22s1.22-1.82,1.22-3.04v-12.66h-12.86v-8.91Z"/>
        <path class="cls-3" d="M964.34,163.37h-9.32l-28.55-49.92v49.92h-9.32v-67.44h9.32l28.55,50.12v-50.12h9.32v67.44Z"/>
        <path class="cls-3" d="M990.56,163.37c-1.55,0-3-.28-4.36-.86-1.35-.57-2.52-1.36-3.49-2.38-.98-1.01-1.76-2.19-2.33-3.54-.57-1.35-.86-2.8-.86-4.35v-45.16c0-1.55.28-3,.86-4.36.57-1.35,1.35-2.53,2.33-3.54.97-1.01,2.14-1.81,3.49-2.38,1.35-.57,2.8-.86,4.36-.86h22.68c1.55,0,3,.29,4.36.86,1.35.57,2.53,1.37,3.54,2.38,1.01,1.01,1.81,2.2,2.38,3.54.57,1.35.86,2.8.86,4.36v45.16c0,1.55-.28,3-.86,4.35-.58,1.35-1.37,2.53-2.38,3.54-1.01,1.01-2.19,1.81-3.54,2.38-1.35.58-2.8.86-4.36.86h-22.68ZM1014.76,109.1c0-1.21-.4-2.23-1.21-3.04-.81-.81-1.83-1.22-3.04-1.22h-17.01c-1.21,0-2.25.41-3.09,1.22-.84.81-1.26,1.83-1.26,3.04v41.11c0,1.22.42,2.23,1.26,3.04s1.88,1.22,3.09,1.22h17.01c1.21,0,2.23-.41,3.04-1.22.81-.81,1.21-1.82,1.21-3.04v-41.11Z"/>
        <path class="cls-3" d="M1067.42,135.86c-2.03-.61-3.75-1.11-5.17-1.52-1.41-.41-2.77-.78-4.05-1.11-1.28-.33-2.62-.7-4-1.11-1.38-.41-3.02-.88-4.91-1.42-3.04-.87-5.57-2.13-7.59-3.79-2.03-1.65-3.04-4.03-3.04-7.12v-12.74c0-1.55.28-3,.86-4.35.57-1.35,1.37-2.53,2.38-3.54,1.01-1.01,2.19-1.8,3.54-2.37,1.35-.57,2.8-.86,4.35-.86h20.05c1.55,0,3,.29,4.35.87,1.35.58,2.54,1.38,3.54,2.41,1.01,1.02,1.81,2.22,2.38,3.59.57,1.36.86,2.82.86,4.38v9.32h-9.62v-7.29c0-1.21-.42-2.24-1.26-3.09-.85-.84-1.88-1.27-3.09-1.27h-14.48c-1.15,0-2.14.43-2.99,1.27-.84.84-1.26,1.87-1.26,3.08v8.59c0,1.35.39,2.34,1.16,2.98.78.64,1.77,1.13,2.99,1.47,1.83.54,3.44,1.01,4.86,1.41,1.41.41,2.78.8,4.1,1.17,1.31.37,2.71.76,4.2,1.16,1.49.41,3.2.87,5.17,1.41,2.9.81,5.38,2.05,7.44,3.74,2.06,1.68,3.09,4.08,3.09,7.18v13.95c0,1.55-.29,3-.86,4.35-.58,1.34-1.37,2.53-2.38,3.53-1.01,1.01-2.19,1.81-3.54,2.38-1.35.57-2.8.86-4.35.86h-20.66c-1.55,0-3-.28-4.35-.86-1.35-.57-2.54-1.36-3.54-2.38-1.01-1.01-1.81-2.19-2.38-3.54-.58-1.35-.86-2.8-.86-4.35v-8.91h9.62v6.83c0,1.2.42,2.23,1.26,3.06.85.84,1.88,1.26,3.09,1.26h14.99c1.21,0,2.24-.42,3.09-1.26.84-.84,1.26-1.87,1.26-3.08v-9.91c0-1.21-.32-2.12-.96-2.73-.64-.6-1.74-1.15-3.29-1.62Z"/>
        <path class="cls-3" d="M1089.69,95.93h48.1v8.91h-19.24v58.53h-9.62v-58.53h-19.24v-8.91Z"/>
        <path class="cls-3" d="M1158.03,163.37h-9.62v-67.44h9.62v67.44Z"/>
        <path class="cls-3" d="M1208.06,140.89h9.62v11.34c0,1.55-.29,3-.86,4.35-.57,1.35-1.37,2.53-2.38,3.54-1.01,1.01-2.2,1.81-3.54,2.38-1.35.58-2.8.86-4.36.86h-21.77c-1.55,0-3-.28-4.36-.86-1.35-.57-2.52-1.36-3.49-2.38-.98-1.01-1.76-2.19-2.33-3.54-.57-1.35-.86-2.8-.86-4.35v-45.16c0-1.55.28-3,.86-4.36.57-1.35,1.35-2.53,2.33-3.54.97-1.01,2.14-1.81,3.49-2.38,1.35-.57,2.8-.86,4.36-.86h21.77c1.55,0,3,.29,4.36.86,1.35.57,2.53,1.37,3.54,2.38,1.01,1.01,1.81,2.2,2.38,3.54.57,1.35.86,2.8.86,4.36v10.83h-9.62v-8.81c0-1.21-.43-2.23-1.27-3.04-.84-.81-1.87-1.22-3.09-1.22h-16c-1.21,0-2.25.41-3.09,1.22-.84.81-1.26,1.83-1.26,3.04v41.11c0,1.22.42,2.23,1.26,3.04s1.88,1.22,3.09,1.22h16c1.22,0,2.25-.41,3.09-1.22.84-.81,1.27-1.82,1.27-3.04v-9.32Z"/>
        <path class="cls-3" d="M1231.85,95.93h39.7v8.91h-30.08v19.64h27.34v8.91h-27.34v21.06h30.18v8.91h-39.8v-67.44Z"/>
        <path class="cls-3" d="M1332.51,163.37h-9.32l-28.55-49.92v49.92h-9.32v-67.44h9.32l28.55,50.12v-50.12h9.32v67.44Z"/>
        <path class="cls-3" d="M1342.63,95.93h48.1v8.91h-19.24v58.53h-9.62v-58.53h-19.24v-8.91Z"/>
        <path class="cls-3" d="M1425.96,136.14h-15.5v27.24h-9.62v-67.44h33.32c1.55,0,3,.29,4.36.86,1.35.57,2.53,1.37,3.54,2.38,1.01,1.01,1.81,2.2,2.38,3.54.57,1.35.86,2.8.86,4.36v17.92c0,2.77-.78,5.12-2.33,7.04-1.55,1.92-3.75,3.23-6.58,3.9l13.37,27.44h-10.53l-13.26-27.24ZM1435.68,109.08c0-1.21-.4-2.22-1.21-3.02-.81-.81-1.86-1.21-3.14-1.21h-20.86v22.38h20.86c1.28,0,2.33-.4,3.14-1.21.81-.81,1.21-1.82,1.21-3.02v-13.91Z"/>
        <path class="cls-3" d="M1471.93,163.37c-1.55,0-3-.28-4.36-.86-1.35-.57-2.52-1.36-3.49-2.38-.98-1.01-1.76-2.19-2.33-3.54-.57-1.35-.86-2.8-.86-4.35v-45.16c0-1.55.28-3,.86-4.36.57-1.35,1.35-2.53,2.33-3.54.97-1.01,2.14-1.81,3.49-2.38,1.35-.57,2.8-.86,4.36-.86h22.68c1.55,0,3,.29,4.36.86,1.35.57,2.53,1.37,3.54,2.38,1.01,1.01,1.81,2.2,2.38,3.54.57,1.35.86,2.8.86,4.36v45.16c0,1.55-.28,3-.86,4.35-.58,1.35-1.37,2.53-2.38,3.54-1.01,1.01-2.19,1.81-3.54,2.38-1.35.58-2.8.86-4.36.86h-22.68ZM1496.13,109.1c0-1.21-.4-2.23-1.21-3.04-.81-.81-1.83-1.22-3.04-1.22h-17.01c-1.21,0-2.25.41-3.09,1.22-.84.81-1.26,1.83-1.26,3.04v41.11c0,1.22.42,2.23,1.26,3.04.84.81,1.88,1.22,3.09,1.22h17.01c1.21,0,2.23-.41,3.04-1.22.81-.81,1.21-1.82,1.21-3.04v-41.11Z"/>
      </g>
      <g>
        <path class="cls-3" d="M722.14,386.97v-202.85h35.73v174h56.94v28.85h-92.67Z"/>
        <path class="cls-3" d="M867.33,345.62l-6.44,41.36h-35.98l36.87-202.85h48.99l36.74,202.85h-36.11l-6.44-41.36h-37.62ZM900.66,317.7l-14.52-94.29-14.52,94.29h29.04Z"/>
        <path class="cls-3" d="M1033.11,184.12h55.05c31.73.07,47.6,14.31,47.6,42.7v117.55c0,28.33-16.63,42.53-49.87,42.59h-52.78v-202.85ZM1068.84,212.97v145.16h15.65c10.35,0,15.53-4.58,15.53-13.75v-117.55c0-9.24-5.18-13.86-15.53-13.86h-15.65Z"/>
        <path class="cls-3" d="M1266.18,347.58c0,28.4-17.13,42.63-51.39,42.7-34.17,0-51.26-14.23-51.26-42.7v-124.07c0-28.4,17.09-42.59,51.26-42.59s51.39,14.2,51.39,42.59v124.07ZM1230.45,223.52c0-9.1-5.17-13.68-15.53-13.75h-.25c-10.27,0-15.41,4.58-15.41,13.75v124.07c0,9.17,5.18,13.75,15.53,13.75s15.65-4.58,15.65-13.75v-124.07Z"/>
        <path class="cls-3" d="M1371.1,327.94l36.99,59.04h-39.14l-31.82-53.76h-4.92v53.76h-35.73v-202.85h52.01c31.73.07,47.6,14.31,47.6,42.7v63.68c0,17.92-8.33,30.4-25,37.43ZM1332.22,212.87v92.43h8.21c4.96,0,8.38-.28,10.23-.83,6.48-2.14,9.72-6.45,9.72-12.93v-64.83c0-9.23-5.18-13.85-15.53-13.85h-12.62Z"/>
        <path class="cls-3" d="M1459.36,345.62l-6.44,41.36h-35.98l36.87-202.85h48.99l36.74,202.85h-36.11l-6.44-41.36h-37.62ZM1492.69,317.7l-14.52-94.29-14.52,94.29h29.04Z"/>
        <path class="cls-3" d="M1561,184.12h55.05c31.73.07,47.6,14.31,47.6,42.7v117.55c0,28.33-16.63,42.53-49.87,42.59h-52.78v-202.85ZM1596.73,212.97v145.16h15.65c10.35,0,15.53-4.58,15.53-13.75v-117.55c0-9.24-5.18-13.86-15.53-13.86h-15.65Z"/>
        <path class="cls-3" d="M1725.01,345.62l-6.44,41.36h-35.98l36.87-202.85h48.99l36.74,202.85h-36.11l-6.44-41.36h-37.62ZM1758.34,317.7l-14.52-94.29-14.52,94.29h29.04Z"/>
      </g>
      <g>
        <path class="cls-5" d="M420.8,243.04c-.09.27-.16.54-.27.8-.32.77-.66,1.53-1,2.3-.13.29-.4.45-.64.64-.48.37-1.02.64-1.57.89-.01,0-.03,0-.07.02.08-.15.14-.27.21-.4.31-.61.63-1.23.95-1.84.04-.07.09-.14.15-.19.67-.51,1.31-1.06,1.84-1.72.13-.16.24-.34.36-.51.01,0,.02,0,.04.01Z"/>
        <path class="cls-5" d="M413.28,252.82c.18-.19.37-.38.54-.59.4-.46.8-.92,1.18-1.39.15-.18.33-.3.54-.4.85-.4,1.65-.89,2.32-1.57.04-.04.08-.09.14-.13-.08.13-.17.26-.25.39-.09.13-.17.26-.27.38-.37.49-.74.99-1.12,1.47-.33.4-.67.79-1.02,1.18-.08.08-.2.13-.3.18-.43.24-.9.38-1.39.46-.11.02-.23.03-.34.05,0-.01-.01-.03-.02-.04Z"/>
        <path class="cls-5" d="M419.42,242.51c.04-.22.08-.42.11-.63.05-.38.09-.76.12-1.14.01-.14.05-.25.14-.37.33-.42.67-.84.95-1.28.16-.26.23-.57.34-.86.01-.03.02-.06.06-.09.04.21.1.42.12.63.04.46.06.93.08,1.39,0,.2,0,.41-.05.61-.02.1-.12.19-.19.28-.45.59-1.02,1.03-1.61,1.46-.01,0-.03,0-.06,0Z"/>
        <path class="cls-5" d="M408.34,257.03c.28-.2.55-.38.81-.58.46-.35.91-.7,1.36-1.05.06-.04.13-.08.21-.09.69-.09,1.35-.28,1.96-.6.16-.08.31-.18.48-.24-.21.19-.41.39-.62.58-.72.61-1.45,1.22-2.18,1.82-.11.09-.23.18-.36.25-.11.05-.24.06-.36.09-.39.08-.91.02-1.3-.17Z"/>
        <path class="cls-5" d="M419.07,235.06c.25.22.5.41.71.63.23.24.43.5.63.76.13.17.06.35,0,.51-.24.56-.64,1-1.06,1.46-.09-.2-.16-.38-.26-.55-.13-.23-.27-.46-.41-.68-.04-.07-.06-.11-.02-.19.22-.43.43-.87.46-1.37.01-.17-.02-.34-.04-.56Z"/>
        <path class="cls-5" d="M407.66,258.7c-.26.15-.49.3-.73.43-.68.35-1.37.69-2.05,1.03-.12.06-.25.13-.38.14-.14.01-.29-.01-.42-.07-.3-.12-.52-.34-.69-.64.28-.11.55-.21.81-.33.41-.18.82-.37,1.24-.55.07-.03.16-.04.23-.02.64.2,1.28.21,1.92,0,.01,0,.03,0,.08,0Z"/>
        <path class="cls-5" d="M415.48,234.02c.77.02,1.53.11,2.25.41-.02.18-.01.35-.06.5-.11.3-.25.6-.38.89-.03.07-.07.08-.16.05-.38-.16-.77-.31-1.17-.45-.09-.03-.12-.06-.11-.16.02-.18.02-.36,0-.54-.03-.36-.1-.48-.37-.7Z"/>
        <path class="cls-5" d="M399.14,260.36c.18,0,.34.01.5,0,.38-.03.76-.07,1.15-.11.06,0,.15,0,.18.05.34.47.77.76,1.37.77-.2.06-.39.13-.59.16-.61.11-1.22.2-1.83.3-.09.01-.18,0-.28,0-.05,0-.09-.04-.13-.07-.33-.28-.33-.67-.37-1.09Z"/>
        <path class="cls-5" d="M419.32,246.55c-.09.17-.17.33-.27.5-.14.25-.3.5-.44.75-.33.58-.79,1.04-1.35,1.38-.49.3-1,.57-1.5.86-.04.02-.08.03-.13.03.16-.23.33-.45.49-.68.14-.19.29-.38.41-.59.12-.21.3-.34.51-.46.76-.42,1.46-.91,2.05-1.55.07-.08.14-.17.22-.25,0,0,.02,0,.03.01Z"/>
        <path class="cls-5" d="M418.7,244.79c.14-.41.28-.79.4-1.18.06-.21.16-.36.33-.49.57-.48,1.11-.99,1.52-1.62.11-.17.2-.36.32-.54-.03.21-.05.43-.1.64-.07.33-.13.66-.25.97-.16.4-.47.73-.79,1.02-.44.4-.9.78-1.36,1.17-.01.01-.03.02-.07.04Z"/>
        <path class="cls-5" d="M411.13,254.88c.16-.15.31-.28.46-.42.26-.24.52-.48.78-.72.1-.1.21-.16.35-.19.87-.2,1.67-.56,2.38-1.12,0,0,.02,0,.04,0-.11.12-.21.24-.32.36-.37.39-.74.78-1.12,1.15-.28.28-.65.45-1.01.6-.45.18-.92.32-1.4.38-.03,0-.07,0-.1,0-.01,0-.02-.01-.06-.03Z"/>
        <path class="cls-5" d="M419.65,240.1c-.02-.19-.04-.35-.06-.51-.03-.18-.07-.36-.09-.54,0-.05.01-.12.05-.17.31-.41.6-.82.81-1.29.12-.26.2-.53.19-.84.03.01.06.02.06.03.14.32.29.64.4.96.07.2-.02.39-.11.57-.3.66-.75,1.22-1.26,1.78Z"/>
        <path class="cls-5" d="M411.17,234.71c.38-.11.75-.23,1.13-.32.39-.1.78-.17,1.17-.24.25-.05.43.07.45.33.01.21-.02.41-.05.62,0,.04-.07.09-.12.09-.48.06-.95.11-1.43.18-.13.02-.2,0-.27-.13-.18-.34-.47-.52-.87-.49,0-.01,0-.03,0-.04Z"/>
        <path class="cls-5" d="M406.03,258.42c.33-.19.63-.36.92-.52.12-.07.25-.13.36-.22.15-.12.3-.13.49-.1.62.1,1.22,0,1.79-.23.04-.02.09-.03.15-.02-.18.13-.35.26-.53.38-.33.22-.64.45-.99.65-.2.11-.43.19-.65.23-.51.1-1.01.02-1.54-.16Z"/>
        <path class="cls-5" d="M418.4,236.84c-.12-.11-.22-.21-.32-.3-.07-.07-.14-.13-.22-.19-.21-.17-.19-.16-.11-.42.1-.3.18-.61.22-.92.02-.18-.08-.37-.12-.55.02,0,.07.01.11.04.23.11.45.22.68.32.21.09.28.26.27.47-.01.38-.15.73-.3,1.07-.07.15-.14.3-.23.47Z"/>
        <path class="cls-5" d="M406.75,236.78c.82-.42,1.64-.83,2.46-1.27.19-.1.32-.02.43.08.11.1.16.26.23.39,0,.02-.03.08-.06.09-.56.25-1.12.51-1.69.75-.03.01-.08.01-.11,0-.4-.19-.79-.15-1.19,0-.02,0-.04,0-.05.01,0-.02-.01-.03-.02-.05Z"/>
        <path class="cls-5" d="M404.18,260.45c-.16.06-.31.12-.47.18-.24.09-.47.17-.71.25-.51.18-.94.03-1.32-.33-.12-.11-.23-.25-.36-.39.2-.04.36-.08.52-.12.24-.06.49-.13.73-.19.05-.01.12,0,.15.02.4.38.86.58,1.41.53.01,0,.03,0,.04.01,0,.01,0,.02,0,.03Z"/>
        <path class="cls-5" d="M413.86,234.07c.37-.02.75-.05,1.12-.06.3,0,.49.16.54.5.03.23.01.46,0,.7,0,.03-.06.1-.09.1-.33-.03-.66-.08-.99-.12-.12-.84-.15-.89-.58-1.11Z"/>
        <path class="cls-5" d="M399.43,261.56c-.29,0-.59-.02-.88,0-.44.03-.66-.22-.79-.58-.07-.21-.1-.43-.15-.65-.03-.11.03-.14.13-.12.25.04.51.08.76.12.08.01.1.06.13.13.09.23.17.46.29.68.11.2.3.32.53.39,0,.01,0,.02-.01.04Z"/>
        <path class="cls-5" d="M409.49,235.37c.25-.11.46-.21.68-.3.18-.07.36-.13.53-.2.5-.18.92.21,1.01.6-.19.05-.38.1-.57.16-.18.05-.35.1-.53.15-.04,0-.11,0-.13-.03-.22-.33-.53-.44-.91-.37,0,0-.02,0-.07-.02Z"/>
        <path class="cls-5" d="M405.21,237.83c.35-.23.7-.47,1.05-.7.23-.16.48-.23.75-.24.22,0,.43.04.65.16-.26.14-.49.27-.73.4-.03.02-.07.04-.1.06-.21.13-.4.24-.68.17-.27-.07-.57,0-.83.15-.03.02-.06.03-.09.04,0-.01-.01-.02-.02-.03Z"/>
        <path class="cls-5" d="M403.71,239.64c-.29.24-.58.47-.86.72-.14.13-.29.18-.47.24-.28.08-.54.21-.81.32-.07.03-.13.07-.22.08.16-.15.33-.3.49-.44.35-.31.69-.64,1.14-.79.23-.07.47-.12.7-.17,0,.02,0,.03.01.05Z"/>
        <path class="cls-5" d="M393.27,257.79c-.18-.57-.29-1.14-.29-1.75h.91c-.27.56-.57,1.11-.62,1.75Z"/>
        <path class="cls-5" d="M395.12,258.8c.18.16.37.32.55.49.03.02.03.09.03.13-.04.34-.09.69-.02,1.03.03.16.08.32.23.43-.06-.45.02-.87.16-1.29.23.11.45.22.67.31.14.06.28.11.42.16.08.03.12.06.13.16.02.36.12.7.33.99.07.1.16.19.24.29-.2-.03-.42-.06-.63-.11-.69-.17-1.34-.42-1.95-.8-.27-.17-.36-.4-.35-.68.02-.37.08-.74.13-1.11.02,0,.03,0,.05,0Z"/>
        <path class="cls-5" d="M394.15,256.03c.37,0,.73.02,1.09,0,.27-.02.41.07.54.32.58,1.1,1.55,1.69,2.74,1.97.95.23,1.85.08,2.76-.2,1.53-.47,2.92-1.21,4.24-2.12,1.97-1.36,3.73-2.98,5.41-4.69,1.83-1.85,3.27-3.98,4.46-6.28.56-1.07,1.01-2.18,1.24-3.37.15-.76.18-1.53-.03-2.28-.34-1.2-1.13-1.95-2.33-2.28-.79-.21-1.59-.25-2.4-.17-1.4.13-2.7.59-3.97,1.17-1.25.57-2.39,1.31-3.49,2.1-.37.26-.73.46-1.19.46-.18,0-.35.05-.55.05.26-.21.5-.44.77-.64,1.04-.8,2.09-1.57,3.21-2.25.77-.46,1.58-.84,2.4-1.2.79-.35,1.59-.63,2.43-.82,1.33-.31,2.67-.44,4.02-.13.96.22,1.8.66,2.49,1.37.59.61.93,1.35,1.13,2.17.13.56.18,1.12.16,1.69-.03.73-.16,1.45-.35,2.15-.22.85-.52,1.67-.88,2.47-.52,1.14-1.12,2.23-1.83,3.26-.97,1.42-2.04,2.77-3.26,3.99-.65.65-1.32,1.27-2,1.89-1.21,1.11-2.55,2.06-3.95,2.91-1.12.67-2.28,1.25-3.51,1.7-1.19.43-2.4.72-3.67.79-.76.04-1.52-.01-2.25-.22-1.48-.42-2.55-1.31-3.12-2.76-.11-.28-.17-.58-.26-.87-.02-.05-.02-.11-.03-.19Z"/>
        <path class="cls-5" d="M398.47,251.94l1.15-6.28h4.53l-1.09,6.28h5.58s-4.16,3.82-5.09,3.82-5.71.03-5.71.03l.62-3.85Z"/>
        <path class="cls-5" d="M387.38,240.71h4.59l-1.95,11.28h7.74l-.62,3.81c-5.31.02-12.39.04-12.39.04l2.64-15.12Z"/>
        <path class="cls-5" d="M399.69,244.85l3.54-3.78h7.92s2.29.31,3.51,1.14c0,0-.23,2.07-1.78,4.38,0,0-.5-1.8-4.82-1.8s-8.37.07-8.37.07Z"/>
        <path class="cls-5" d="M393.68,258.83c-.11-.25-.23-.49-.31-.75-.04-.12-.01-.26.02-.39.1-.45.29-.87.52-1.28,0-.01.02-.02.04-.04.07.25.14.5.2.74.01.04-.02.1-.04.15-.16.38-.33.75-.37,1.16-.01.13-.01.26-.02.39-.01,0-.02,0-.04,0Z"/>
        <path class="cls-5" d="M394.59,260.12c-.17-.21-.35-.42-.49-.65-.07-.1-.08-.25-.08-.38-.02-.46.06-.92.18-1.37,0-.01.01-.02.03-.05.13.23.26.44.38.67.02.04,0,.1,0,.16-.06.4-.13.81-.06,1.22.02.13.05.25.08.38-.01,0-.02.01-.03.02Z"/>
        <path class="cls-5" d="M402.91,239.53c.41-.35.83-.7,1.23-1.05.27-.23.59-.39.96-.47.3-.07.59-.09.92-.02-.31.22-.6.43-.88.64-.04.03-.08.06-.12.09-.25.19-.48.37-.88.38-.39.01-.77.18-1.08.4-.03.02-.07.05-.11.07-.01-.01-.02-.02-.03-.03Z"/>
      </g>
      <path class="cls-3" d="M77.82,6.14h117.86l-60.3,360.02h198.8l-16,97.2c-136.37.47-318.17,1.06-318.17,1.06L77.82,6.14Z"/>
    </g>
  </g>
</svg>